<?xml version="1.0" standalone="no"?>
<!DOCTYPE svg PUBLIC "-//W3C//DTD SVG 1.1//EN" "http://www.w3.org/Graphics/SVG/1.1/DTD/svg11.dtd" >
<svg>
<metadata>
Created by FontForge 20120731 at Wed Apr 23 14:01:38 2014
 By World Wide Web Server
Copyright (c) 2011 by Jan Tonellato. All rights reserved.
</metadata>
<defs>
<font id="Novecentowide-DemiBold" horiz-adv-x="698" >
  <font-face 
    font-family="Novecento wide"
    font-weight="650"
    font-stretch="expanded"
    units-per-em="1000"
    panose-1="0 0 7 5 0 0 0 0 0 0"
    ascent="850"
    descent="-150"
    x-height="700"
    cap-height="700"
    bbox="-230 -279 1312 963"
    underline-thickness="125"
    underline-position="-69"
    stemh="130"
    stemv="145"
    unicode-range="U+0020-25CA"
  />
<missing-glyph horiz-adv-x="666" 
d="M83 85v530c0 53 36 85 85 85h330c49 0 85 -32 85 -85v-530c0 -55 -36 -85 -85 -85h-330c-49 0 -85 30 -85 85zM180 20h306c49 0 74 20 74 76v508c0 56 -27 76 -84 76h-286c-63 0 -84 -20 -84 -76v-508c0 -56 27 -76 74 -76zM459 561l92 -93l-125 -125l125 -126l-93 -92
l-125 125l-124 -124l-93 93l124 124l-124 124l92 92l125 -123z" />
    <glyph glyph-name=".notdef" horiz-adv-x="666" 
d="M83 85v530c0 53 36 85 85 85h330c49 0 85 -32 85 -85v-530c0 -55 -36 -85 -85 -85h-330c-49 0 -85 30 -85 85zM180 20h306c49 0 74 20 74 76v508c0 56 -27 76 -84 76h-286c-63 0 -84 -20 -84 -76v-508c0 -56 27 -76 74 -76zM459 561l92 -93l-125 -125l125 -126l-93 -92
l-125 125l-124 -124l-93 93l124 124l-124 124l92 92l125 -123z" />
    <glyph glyph-name="A" unicode="A" horiz-adv-x="719" 
d="M563 0l-52 134h-303l-52 -134h-150l288 700h131l288 -700h-150zM256 257h207l-69 177c-15 39 -33 97 -34 97h-1c-1 0 -19 -58 -34 -97z" />
    <glyph glyph-name="AE" unicode="&#xc6;" horiz-adv-x="1013" 
d="M584 130h361v-130h-497v134h-238l-53 -134h-151l291 700h642v-130h-355v-149h281v-122h-281v-169zM448 257v313h-71c-1 0 -33 -89 -54 -145l-65 -168h190z" />
    <glyph glyph-name="Aacute" unicode="&#xc1;" horiz-adv-x="719" 
d="M522 834l-238 -103l-41 74l231 124zM563 0l-52 134h-303l-52 -134h-150l288 700h131l288 -700h-150zM256 257h207l-69 177c-15 39 -33 97 -34 97h-1c-1 0 -19 -58 -34 -97z" />
    <glyph glyph-name="Abreve" unicode="&#x102;" horiz-adv-x="719" 
d="M438 888h100c-19 -85 -91 -145 -178 -145c-93 0 -163 60 -181 145h102c8 -31 37 -59 79 -59c40 0 70 28 78 59zM563 0l-52 134h-303l-52 -134h-150l288 700h131l288 -700h-150zM256 257h207l-69 177c-15 39 -33 97 -34 97h-1c-1 0 -19 -58 -34 -97z" />
    <glyph glyph-name="Acircumflex" unicode="&#xc2;" horiz-adv-x="719" 
d="M356 830l-119 -99l-68 69l187 159l186 -159l-67 -69zM563 0l-52 134h-303l-52 -134h-150l288 700h131l288 -700h-150zM256 257h207l-69 177c-15 39 -33 97 -34 97h-1c-1 0 -19 -58 -34 -97z" />
    <glyph glyph-name="Adieresis" unicode="&#xc4;" horiz-adv-x="719" 
d="M227 767c-38 0 -67 28 -67 65c0 36 29 65 67 65c36 0 65 -29 65 -65c0 -37 -29 -65 -65 -65zM485 767c-37 0 -66 28 -66 65c0 36 29 65 66 65c36 0 65 -29 65 -65c0 -37 -29 -65 -65 -65zM563 0l-52 134h-303l-52 -134h-150l288 700h131l288 -700h-150zM256 257h207
l-69 177c-15 39 -33 97 -34 97h-1c-1 0 -19 -58 -34 -97z" />
    <glyph glyph-name="Agrave" unicode="&#xc0;" horiz-adv-x="719" 
d="M453 805l-40 -74l-239 103l49 95zM563 0l-52 134h-303l-52 -134h-150l288 700h131l288 -700h-150zM256 257h207l-69 177c-15 39 -33 97 -34 97h-1c-1 0 -19 -58 -34 -97z" />
    <glyph glyph-name="Amacron" unicode="&#x100;" horiz-adv-x="719" 
d="M533 878v-108h-339v108h339zM563 0l-52 134h-303l-52 -134h-150l288 700h131l288 -700h-150zM256 257h207l-69 177c-15 39 -33 97 -34 97h-1c-1 0 -19 -58 -34 -97z" />
    <glyph glyph-name="Aogonek" unicode="&#x104;" horiz-adv-x="719" 
d="M687 -97l73 -46c-33 -65 -97 -102 -165 -102c-100 0 -173 58 -173 155c0 85 72 140 119 147l-30 77h-303l-52 -134h-150l288 700h131l288 -700h-72c-53 0 -121 -26 -121 -90c0 -35 26 -68 75 -68c42 0 75 25 92 61zM256 257h207l-69 177c-15 39 -33 97 -34 97h-1
c-1 0 -19 -58 -34 -97z" />
    <glyph glyph-name="Aring" unicode="&#xc5;" horiz-adv-x="719" 
d="M563 0l-52 134h-303l-52 -134h-150l287 698c-42 24 -71 69 -71 120c0 74 62 136 137 136s137 -62 137 -136c0 -51 -29 -96 -70 -119l287 -699h-150zM359 875c-29 0 -55 -25 -55 -57c0 -29 26 -54 55 -54c31 0 56 25 56 54c0 32 -25 57 -56 57zM256 257h207l-69 177
c-15 39 -33 97 -34 97h-1c-1 0 -19 -58 -34 -97z" />
    <glyph glyph-name="Atilde" unicode="&#xc3;" horiz-adv-x="719" 
d="M473 884h109c0 -80 -59 -138 -142 -138c-69 0 -104 60 -149 60c-27 0 -46 -18 -46 -44h-109c0 80 60 139 142 139c73 0 105 -61 149 -61c27 0 46 19 46 44zM563 0l-52 134h-303l-52 -134h-150l288 700h131l288 -700h-150zM256 257h207l-69 177c-15 39 -33 97 -34 97h-1
c-1 0 -19 -58 -34 -97z" />
    <glyph glyph-name="B" unicode="B" horiz-adv-x="656" 
d="M83 700h290c124 0 209 -79 209 -181c0 -67 -50 -125 -97 -139v-1c67 -15 136 -88 136 -169c0 -118 -79 -210 -244 -210h-294v700zM222 421h123c57 0 97 36 97 81c0 47 -40 80 -97 80h-123v-161zM222 118h142c66 0 111 39 111 98s-49 98 -112 98h-141v-196z" />
    <glyph glyph-name="C" unicode="C" horiz-adv-x="756" 
d="M719 529l-142 -37c-37 52 -107 85 -176 85c-131 0 -218 -94 -218 -227c0 -137 93 -225 218 -225c80 0 154 42 189 103l140 -37c-58 -124 -182 -205 -329 -205c-201 0 -363 153 -363 364s162 364 363 364c138 0 256 -73 318 -185z" />
    <glyph glyph-name="Cacute" unicode="&#x106;" horiz-adv-x="756" 
d="M514 929l48 -95l-238 -103l-41 74zM719 529l-142 -37c-37 52 -107 85 -176 85c-131 0 -218 -94 -218 -227c0 -137 93 -225 218 -225c80 0 154 42 189 103l140 -37c-58 -124 -182 -205 -329 -205c-201 0 -363 153 -363 364s162 364 363 364c138 0 256 -73 318 -185z" />
    <glyph glyph-name="Ccaron" unicode="&#x10c;" horiz-adv-x="756" 
d="M212 883l187 -159l186 159l-67 69l-119 -99l-119 99zM719 529l-142 -37c-37 52 -107 85 -176 85c-131 0 -218 -94 -218 -227c0 -137 93 -225 218 -225c80 0 154 42 189 103l140 -37c-58 -124 -182 -205 -329 -205c-201 0 -363 153 -363 364s162 364 363 364
c138 0 256 -73 318 -185z" />
    <glyph glyph-name="Ccedilla" unicode="&#xc7;" horiz-adv-x="756" 
d="M590 228l140 -37c-54 -116 -166 -194 -300 -204l-15 -41c57 1 107 -38 107 -101c0 -75 -53 -106 -116 -106h-106l29 74h77c27 0 38 14 38 31c0 18 -15 30 -38 31h-92l39 114c-178 22 -315 167 -315 361c0 211 162 364 363 364c138 0 256 -73 318 -185l-142 -37
c-37 52 -107 85 -176 85c-131 0 -218 -94 -218 -227c0 -137 93 -225 218 -225c80 0 154 42 189 103z" />
    <glyph glyph-name="Cdotaccent" unicode="&#x10a;" horiz-adv-x="756" 
d="M399 766c-36 0 -66 29 -66 66c0 36 30 65 66 65s65 -29 65 -65c0 -37 -29 -66 -65 -66zM719 529l-142 -37c-37 52 -107 85 -176 85c-131 0 -218 -94 -218 -227c0 -137 93 -225 218 -225c80 0 154 42 189 103l140 -37c-58 -124 -182 -205 -329 -205
c-201 0 -363 153 -363 364s162 364 363 364c138 0 256 -73 318 -185z" />
    <glyph glyph-name="D" unicode="D" horiz-adv-x="785" 
d="M83 700h302c200 0 362 -143 362 -353c0 -209 -161 -347 -360 -347h-304v700zM222 130h165c116 0 216 81 216 217s-100 223 -218 223h-163v-440z" />
    <glyph glyph-name="Dcaron" unicode="&#x10e;" horiz-adv-x="785" 
d="M198 883l187 -159l186 159l-67 69l-119 -99l-119 99zM83 700h302c200 0 362 -143 362 -353c0 -209 -161 -347 -360 -347h-304v700zM222 130h165c116 0 216 81 216 217s-100 223 -218 223h-163v-440z" />
    <glyph glyph-name="Dcroat" unicode="&#x110;" horiz-adv-x="796" 
d="M94 700h302c200 0 362 -143 362 -353c0 -209 -161 -347 -360 -347h-304v292h-56v125h56v283zM233 130h165c116 0 216 81 216 217s-100 223 -218 223h-163v-153h131v-125h-131v-162z" />
    <glyph glyph-name="E" unicode="E" horiz-adv-x="652" 
d="M222 130h362v-130h-501v700h495v-130h-356v-149h281v-122h-281v-169z" />
    <glyph glyph-name="Eacute" unicode="&#xc9;" horiz-adv-x="652" 
d="M506 834l-238 -103l-41 74l231 124zM222 130h362v-130h-501v700h495v-130h-356v-149h281v-122h-281v-169z" />
    <glyph glyph-name="Ecaron" unicode="&#x11a;" horiz-adv-x="652" 
d="M529 883l-186 -159l-187 159l68 69l119 -99l119 99zM222 130h362v-130h-501v700h495v-130h-356v-149h281v-122h-281v-169z" />
    <glyph glyph-name="Ecircumflex" unicode="&#xca;" horiz-adv-x="652" 
d="M340 830l-119 -99l-68 69l187 159l186 -159l-67 -69zM222 130h362v-130h-501v700h495v-130h-356v-149h281v-122h-281v-169z" />
    <glyph glyph-name="Edieresis" unicode="&#xcb;" horiz-adv-x="652" 
d="M211 767c-38 0 -67 28 -67 65c0 36 29 65 67 65c36 0 65 -29 65 -65c0 -37 -29 -65 -65 -65zM469 767c-37 0 -66 28 -66 65c0 36 29 65 66 65c36 0 65 -29 65 -65c0 -37 -29 -65 -65 -65zM222 130h362v-130h-501v700h495v-130h-356v-149h281v-122h-281v-169z" />
    <glyph glyph-name="Edotaccent" unicode="&#x116;" horiz-adv-x="652" 
d="M343 766c-36 0 -66 29 -66 66c0 36 30 65 66 65s65 -29 65 -65c0 -37 -29 -66 -65 -66zM222 130h362v-130h-501v700h495v-130h-356v-149h281v-122h-281v-169z" />
    <glyph glyph-name="Egrave" unicode="&#xc8;" horiz-adv-x="652" 
d="M437 805l-40 -74l-239 103l49 95zM222 130h362v-130h-501v700h495v-130h-356v-149h281v-122h-281v-169z" />
    <glyph glyph-name="Emacron" unicode="&#x112;" horiz-adv-x="652" 
d="M517 878v-108h-339v108h339zM222 130h362v-130h-501v700h495v-130h-356v-149h281v-122h-281v-169z" />
    <glyph glyph-name="Eng" unicode="&#x14a;" horiz-adv-x="776" 
d="M554 700h139v-700c0 -135 -93 -233 -219 -233h-41v112h29c62 0 100 48 100 121l-199 270c-63 86 -140 196 -141 196h-1c-1 0 1 -101 1 -240v-226h-139v700h131l203 -273c48 -63 136 -188 137 -188h1c1 0 -1 114 -1 232v229z" />
    <glyph glyph-name="Eogonek" unicode="&#x118;" horiz-adv-x="652" 
d="M516 -97l73 -46c-33 -65 -97 -102 -165 -102c-100 0 -173 58 -173 155c0 36 13 66 31 90h-199v700h495v-130h-356v-149h281v-122h-281v-169h362v-130h-114c-53 0 -121 -26 -121 -90c0 -35 26 -68 75 -68c42 0 75 25 92 61z" />
    <glyph glyph-name="Eth" unicode="&#xd0;" horiz-adv-x="796" 
d="M94 700h302c200 0 362 -143 362 -353c0 -209 -161 -347 -360 -347h-304v292h-56v125h56v283zM233 130h165c116 0 216 81 216 217s-100 223 -218 223h-163v-153h131v-125h-131v-162z" />
    <glyph glyph-name="F" unicode="F" horiz-adv-x="603" 
d="M568 570h-346v-171h271v-125h-271v-274h-139v700h485v-130z" />
    <glyph glyph-name="G" unicode="G" horiz-adv-x="793" 
d="M614 73h-1c-38 -43 -121 -87 -212 -87c-201 0 -363 153 -363 364s162 364 363 364c139 -1 255 -73 318 -185l-142 -37c-38 52 -107 85 -176 85c-131 0 -218 -94 -218 -227c0 -139 96 -228 226 -228c120 0 183 66 205 120v30h-194v113h313v-385h-120c0 58 1 72 1 73z" />
    <glyph glyph-name="Gbreve" unicode="&#x11e;" horiz-adv-x="793" 
d="M218 888h102c8 -31 37 -59 79 -59c40 0 70 28 78 59h100c-19 -85 -91 -145 -178 -145c-93 0 -163 60 -181 145zM614 73h-1c-38 -43 -121 -87 -212 -87c-201 0 -363 153 -363 364s162 364 363 364c139 -1 255 -73 318 -185l-142 -37c-38 52 -107 85 -176 85
c-131 0 -218 -94 -218 -227c0 -139 96 -228 226 -228c120 0 183 66 205 120v30h-194v113h313v-385h-120c0 58 1 72 1 73z" />
    <glyph glyph-name="Gcircumflex" unicode="&#x11c;" horiz-adv-x="793" 
d="M208 800l187 159l186 -159l-67 -69l-119 99l-119 -99zM614 73h-1c-38 -43 -121 -87 -212 -87c-201 0 -363 153 -363 364s162 364 363 364c139 -1 255 -73 318 -185l-142 -37c-38 52 -107 85 -176 85c-131 0 -218 -94 -218 -227c0 -139 96 -228 226 -228
c120 0 183 66 205 120v30h-194v113h313v-385h-120c0 58 1 72 1 73z" />
    <glyph glyph-name="Gcommaaccent" unicode="&#x122;" horiz-adv-x="793" 
d="M614 73h-1c-38 -43 -121 -87 -212 -87c-201 0 -363 153 -363 364s162 364 363 364c139 -1 255 -73 318 -185l-142 -37c-38 52 -107 85 -176 85c-131 0 -218 -94 -218 -227c0 -139 96 -228 226 -228c120 0 183 66 205 120v30h-194v113h313v-385h-120c0 58 1 72 1 73z
M381 -167l12 4l-12 2c-23 2 -50 23 -50 58c0 36 29 64 65 64c35 0 64 -29 64 -73c0 -58 -44 -124 -95 -167h-49c31 22 65 80 65 112z" />
    <glyph glyph-name="Gdotaccent" unicode="&#x120;" horiz-adv-x="793" 
d="M398 766c-36 0 -66 29 -66 66c0 36 30 65 66 65s65 -29 65 -65c0 -37 -29 -66 -65 -66zM614 73h-1c-38 -43 -121 -87 -212 -87c-201 0 -363 153 -363 364s162 364 363 364c139 -1 255 -73 318 -185l-142 -37c-38 52 -107 85 -176 85c-131 0 -218 -94 -218 -227
c0 -139 96 -228 226 -228c120 0 183 66 205 120v30h-194v113h313v-385h-120c0 58 1 72 1 73z" />
    <glyph glyph-name="Germandbls" unicode="&#x1e9e;" horiz-adv-x="810" 
d="M83 700h622l-105 -196c-21 -40 -49 -93 -49 -94l1 -1h5c119 1 215 -90 215 -203c0 -122 -93 -220 -243 -220c-108 0 -197 55 -243 136l132 36c26 -34 60 -54 104 -54c73 0 110 47 110 104c0 52 -38 100 -113 100h-101v101l46 91c15 31 35 70 35 71l-1 1
c-1 0 -33 -2 -68 -2h-208v-570h-139v700z" />
    <glyph glyph-name="H" unicode="H" horiz-adv-x="747" 
d="M525 700h139v-700h-139v289h-303v-289h-139v700h139v-280h303v280z" />
    <glyph glyph-name="Hbar" unicode="&#x126;" horiz-adv-x="747" 
d="M733 633v-114h-69v-519h-139v289h-303v-289h-139v519h-69v114h69v67h139v-67h303v67h139v-67h69zM525 420v99h-303v-99h303z" />
    <glyph glyph-name="Hcircumflex" unicode="&#x124;" horiz-adv-x="747" 
d="M370 830l-119 -99l-68 69l187 159l186 -159l-67 -69zM525 700h139v-700h-139v289h-303v-289h-139v700h139v-280h303v280z" />
    <glyph glyph-name="I" unicode="I" horiz-adv-x="305" 
d="M222 0h-139v700h139v-700z" />
    <glyph glyph-name="IJ" unicode="&#x132;" horiz-adv-x="962" 
d="M222 0h-139v700h139v-700zM755 700h139v-396c0 -204 -122 -318 -308 -318c-133 0 -243 76 -284 179l137 37c26 -54 79 -86 147 -86c108 0 169 70 169 182v402z" />
    <glyph glyph-name="Iacute" unicode="&#xcd;" horiz-adv-x="305" 
d="M268 929l48 -95l-238 -103l-41 74zM222 0h-139v700h139v-700z" />
    <glyph glyph-name="Icircumflex" unicode="&#xce;" horiz-adv-x="305" 
d="M-37 800l187 159l186 -159l-67 -69l-119 99l-119 -99zM222 0h-139v700h139v-700z" />
    <glyph glyph-name="Idieresis" unicode="&#xcf;" horiz-adv-x="305" 
d="M21 767c-38 0 -67 28 -67 65c0 36 29 65 67 65c36 0 65 -29 65 -65c0 -37 -29 -65 -65 -65zM279 767c-37 0 -66 28 -66 65c0 36 29 65 66 65c36 0 65 -29 65 -65c0 -37 -29 -65 -65 -65zM222 0h-139v700h139v-700z" />
    <glyph glyph-name="Idotaccent" unicode="&#x130;" horiz-adv-x="305" 
d="M153 766c-36 0 -66 29 -66 66c0 36 30 65 66 65s65 -29 65 -65c0 -37 -29 -66 -65 -66zM222 0h-139v700h139v-700z" />
    <glyph glyph-name="Igrave" unicode="&#xcc;" horiz-adv-x="305" 
d="M207 731l-239 103l49 95l230 -124zM222 0h-139v700h139v-700z" />
    <glyph glyph-name="Imacron" unicode="&#x12a;" horiz-adv-x="305" 
d="M-12 878h339v-108h-339v108zM222 0h-139v700h139v-700z" />
    <glyph glyph-name="Iogonek" unicode="&#x12e;" horiz-adv-x="305" 
d="M225 -97l73 -46c-33 -65 -97 -102 -165 -102c-100 0 -173 58 -173 155c0 88 77 144 123 148v642h139v-700h-43c-53 0 -121 -26 -121 -90c0 -35 26 -68 75 -68c42 0 75 25 92 61z" />
    <glyph glyph-name="J" unicode="J" horiz-adv-x="671" 
d="M464 700h139v-396c0 -204 -122 -318 -308 -318c-133 0 -243 76 -284 179l137 37c26 -54 79 -86 147 -86c108 0 169 70 169 182v402z" />
    <glyph glyph-name="Jcircumflex" unicode="&#x134;" horiz-adv-x="671" 
d="M344 800l187 159l186 -159l-67 -69l-119 99l-119 -99zM464 700h139v-396c0 -204 -122 -318 -308 -318c-133 0 -243 76 -284 179l137 37c26 -54 79 -86 147 -86c108 0 169 70 169 182v402z" />
    <glyph glyph-name="K" unicode="K" horiz-adv-x="718" 
d="M694 0h-165l-229 314l-78 -78v-236h-139v700h139v-138c0 -115 -2 -157 -1 -157h1c1 0 35 38 100 103l192 192h171l-293 -294z" />
    <glyph glyph-name="Kcommaaccent" unicode="&#x136;" horiz-adv-x="718" 
d="M392 406l302 -406h-165l-229 314l-78 -78v-236h-139v700h139v-138c0 -115 -2 -157 -1 -157h1c1 0 35 38 100 103l192 192h171zM359 -163l-12 2c-23 2 -50 23 -50 58c0 36 29 64 65 64c35 0 64 -29 64 -73c0 -58 -44 -124 -95 -167h-49c31 22 65 80 65 112z" />
    <glyph glyph-name="L" unicode="L" horiz-adv-x="588" 
d="M222 130h346v-130h-485v700h139v-570z" />
    <glyph glyph-name="Lacute" unicode="&#x139;" horiz-adv-x="588" 
d="M325 834l-238 -103l-41 74l231 124zM222 130h346v-130h-485v700h139v-570z" />
    <glyph glyph-name="Lcaron" unicode="&#x13d;" horiz-adv-x="588" 
d="M392 579l-13 2c-25 3 -53 25 -53 63s31 68 70 68c37 0 68 -31 68 -78c0 -62 -47 -134 -102 -180h-52c33 24 69 86 69 121zM222 130h346v-130h-485v700h139v-570z" />
    <glyph glyph-name="Lcommaaccent" unicode="&#x13b;" horiz-adv-x="588" 
d="M222 130h346v-130h-485v700h139v-570zM328 -163l-12 2c-23 2 -50 23 -50 58c0 36 29 64 65 64c35 0 64 -29 64 -73c0 -58 -44 -124 -95 -167h-49c31 22 65 80 65 112z" />
    <glyph glyph-name="Ldot" unicode="&#x13f;" horiz-adv-x="588" 
d="M222 130h346v-130h-485v700h139v-570zM409 321c-36 0 -65 29 -65 66c0 36 29 65 65 65c37 0 66 -29 66 -65c0 -37 -29 -66 -66 -66z" />
    <glyph glyph-name="Lslash" unicode="&#x141;" horiz-adv-x="588" 
d="M222 130h346v-130h-485v700h139v-279l254 131v-132l-254 -130v-160z" />
    <glyph glyph-name="M" unicode="M" horiz-adv-x="848" 
d="M634 700h131v-700h-137v219c0 147 5 248 4 248h-1c-1 0 -50 -86 -62 -106l-109 -188h-72l-109 188c-13 20 -62 106 -63 106h-1c-1 0 5 -101 5 -248v-219h-137v700h131l145 -240c54 -89 63 -111 64 -111h1c1 0 10 22 64 111z" />
    <glyph glyph-name="N" unicode="N" horiz-adv-x="776" 
d="M554 700h139v-700h-131l-199 270c-63 86 -140 196 -141 196h-1c-1 0 1 -101 1 -240v-226h-139v700h131l203 -273c48 -63 136 -188 137 -188h1c1 0 -1 114 -1 232v229z" />
    <glyph glyph-name="Nacute" unicode="&#x143;" horiz-adv-x="776" 
d="M504 929l48 -95l-238 -103l-41 74zM554 700h139v-700h-131l-199 270c-63 86 -140 196 -141 196h-1c-1 0 1 -101 1 -240v-226h-139v700h131l203 -273c48 -63 136 -188 137 -188h1c1 0 -1 114 -1 232v229z" />
    <glyph glyph-name="Ncaron" unicode="&#x147;" horiz-adv-x="776" 
d="M202 883l187 -159l186 159l-67 69l-119 -99l-119 99zM554 700h139v-700h-131l-199 270c-63 86 -140 196 -141 196h-1c-1 0 1 -101 1 -240v-226h-139v700h131l203 -273c48 -63 136 -188 137 -188h1c1 0 -1 114 -1 232v229z" />
    <glyph glyph-name="Ncommaaccent" unicode="&#x145;" horiz-adv-x="776" 
d="M554 700h139v-700h-131l-199 270c-63 86 -140 196 -141 196h-1c-1 0 1 -101 1 -240v-226h-139v700h131l203 -273c48 -63 136 -188 137 -188h1c1 0 -1 114 -1 232v229zM380 -167l12 4l-12 2c-23 2 -50 23 -50 58c0 36 29 64 65 64c35 0 64 -29 64 -73
c0 -58 -44 -124 -95 -167h-49c31 22 65 80 65 112z" />
    <glyph glyph-name="Ntilde" unicode="&#xd1;" horiz-adv-x="776" 
d="M503 884h109c0 -80 -59 -138 -142 -138c-69 0 -104 60 -149 60c-27 0 -46 -18 -46 -44h-109c0 80 60 139 142 139c73 0 105 -61 149 -61c27 0 46 19 46 44zM554 700h139v-700h-131l-199 270c-63 86 -140 196 -141 196h-1c-1 0 1 -101 1 -240v-226h-139v700h131l203 -273
c48 -63 136 -188 137 -188h1c1 0 -1 114 -1 232v229z" />
    <glyph glyph-name="O" unicode="O" horiz-adv-x="803" 
d="M38 350c0 211 162 364 363 364s364 -153 364 -364s-163 -364 -364 -364s-363 153 -363 364zM183 350c0 -134 90 -227 218 -227c129 0 219 93 219 227c0 135 -90 227 -219 227c-128 0 -218 -92 -218 -227z" />
    <glyph glyph-name="OE" unicode="&#x152;" horiz-adv-x="1045" 
d="M616 130h361v-130h-497c-28 -4 -58 -4 -89 -4c-198 0 -353 146 -353 354s155 354 353 354c17 0 52 1 89 -4h491v-130h-355v-149h281v-122h-281v-169zM480 149v402c-24 11 -54 16 -89 16c-125 0 -208 -85 -208 -217c0 -131 83 -217 208 -217c36 0 65 5 89 16z" />
    <glyph glyph-name="Oacute" unicode="&#xd3;" horiz-adv-x="803" 
d="M521 929l48 -95l-238 -103l-41 74zM38 350c0 211 162 364 363 364s364 -153 364 -364s-163 -364 -364 -364s-363 153 -363 364zM183 350c0 -134 90 -227 218 -227c129 0 219 93 219 227c0 135 -90 227 -219 227c-128 0 -218 -92 -218 -227z" />
    <glyph glyph-name="Ocircumflex" unicode="&#xd4;" horiz-adv-x="803" 
d="M216 800l187 159l186 -159l-67 -69l-119 99l-119 -99zM38 350c0 211 162 364 363 364s364 -153 364 -364s-163 -364 -364 -364s-363 153 -363 364zM183 350c0 -134 90 -227 218 -227c129 0 219 93 219 227c0 135 -90 227 -219 227c-128 0 -218 -92 -218 -227z" />
    <glyph glyph-name="Odieresis" unicode="&#xd6;" horiz-adv-x="803" 
d="M274 767c-38 0 -67 28 -67 65c0 36 29 65 67 65c36 0 65 -29 65 -65c0 -37 -29 -65 -65 -65zM532 767c-37 0 -66 28 -66 65c0 36 29 65 66 65c36 0 65 -29 65 -65c0 -37 -29 -65 -65 -65zM38 350c0 211 162 364 363 364s364 -153 364 -364s-163 -364 -364 -364
s-363 153 -363 364zM183 350c0 -134 90 -227 218 -227c129 0 219 93 219 227c0 135 -90 227 -219 227c-128 0 -218 -92 -218 -227z" />
    <glyph glyph-name="Ograve" unicode="&#xd2;" horiz-adv-x="803" 
d="M460 731l-239 103l49 95l230 -124zM38 350c0 211 162 364 363 364s364 -153 364 -364s-163 -364 -364 -364s-363 153 -363 364zM183 350c0 -134 90 -227 218 -227c129 0 219 93 219 227c0 135 -90 227 -219 227c-128 0 -218 -92 -218 -227z" />
    <glyph glyph-name="Ohungarumlaut" unicode="&#x150;" horiz-adv-x="803" 
d="M405 796l-152 -65l-40 74l231 124l40 -79l147 79l48 -95l-239 -103zM401 714c201 0 364 -153 364 -364s-163 -364 -364 -364s-363 153 -363 364s162 364 363 364zM401 123c129 0 219 93 219 227c0 135 -90 227 -219 227c-128 0 -218 -92 -218 -227
c0 -134 90 -227 218 -227z" />
    <glyph glyph-name="Omacron" unicode="&#x14c;" horiz-adv-x="803" 
d="M241 878h339v-108h-339v108zM38 350c0 211 162 364 363 364s364 -153 364 -364s-163 -364 -364 -364s-363 153 -363 364zM183 350c0 -134 90 -227 218 -227c129 0 219 93 219 227c0 135 -90 227 -219 227c-128 0 -218 -92 -218 -227z" />
    <glyph glyph-name="Oslash" unicode="&#xd8;" horiz-adv-x="803" 
d="M709 647l-38 -49c59 -64 94 -150 94 -248c0 -211 -163 -364 -364 -364c-60 0 -117 14 -167 39l-37 -48l-99 74l36 48c-59 64 -96 151 -96 251c0 211 162 364 363 364c62 0 121 -15 172 -41l37 48zM222 213l266 348c-26 10 -55 16 -87 16c-128 0 -218 -92 -218 -227
c0 -53 14 -100 39 -137zM584 483l-265 -346c25 -9 53 -14 82 -14c129 0 219 93 219 227c0 51 -13 97 -36 133z" />
    <glyph glyph-name="Otilde" unicode="&#xd5;" horiz-adv-x="803" 
d="M520 884h109c0 -80 -59 -138 -142 -138c-69 0 -104 60 -149 60c-27 0 -46 -18 -46 -44h-109c0 80 60 139 142 139c73 0 105 -61 149 -61c27 0 46 19 46 44zM38 350c0 211 162 364 363 364s364 -153 364 -364s-163 -364 -364 -364s-363 153 -363 364zM183 350
c0 -134 90 -227 218 -227c129 0 219 93 219 227c0 135 -90 227 -219 227c-128 0 -218 -92 -218 -227z" />
    <glyph glyph-name="P" unicode="P" horiz-adv-x="633" 
d="M83 700h250c168 0 270 -88 270 -234c0 -147 -102 -235 -270 -235h-111v-231h-139v700zM222 361h108c82 0 129 40 129 105c0 66 -49 104 -129 104h-108v-209z" />
    <glyph glyph-name="Q" unicode="Q" horiz-adv-x="803" 
d="M330 -132v125c-167 31 -292 172 -292 357c0 211 162 364 363 364s364 -153 364 -364c0 -187 -127 -328 -296 -358v-124h-139zM401 123c129 0 219 93 219 227c0 135 -90 227 -219 227c-128 0 -218 -92 -218 -227c0 -134 90 -227 218 -227z" />
    <glyph glyph-name="R" unicode="R" horiz-adv-x="666" 
d="M631 0h-156l-139 239h-8h-106v-239h-139v700h245c172 0 275 -93 275 -234c0 -96 -47 -166 -132 -201zM222 570v-207h124c77 0 113 50 113 103c0 55 -37 104 -113 104h-124z" />
    <glyph glyph-name="Racute" unicode="&#x154;" horiz-adv-x="666" 
d="M481 834l-238 -103l-41 74l231 124zM631 0h-156l-139 239h-8h-106v-239h-139v700h245c172 0 275 -93 275 -234c0 -96 -47 -166 -132 -201zM222 570v-207h124c77 0 113 50 113 103c0 55 -37 104 -113 104h-124z" />
    <glyph glyph-name="Rcaron" unicode="&#x158;" horiz-adv-x="666" 
d="M504 883l-186 -159l-187 159l68 69l119 -99l119 99zM631 0h-156l-139 239h-8h-106v-239h-139v700h245c172 0 275 -93 275 -234c0 -96 -47 -166 -132 -201zM222 570v-207h124c77 0 113 50 113 103c0 55 -37 104 -113 104h-124z" />
    <glyph glyph-name="Rcommaaccent" unicode="&#x156;" horiz-adv-x="666" 
d="M471 265l160 -265h-156l-139 239h-8h-106v-239h-139v700h245c172 0 275 -93 275 -234c0 -96 -47 -166 -132 -201zM222 570v-207h124c77 0 113 50 113 103c0 55 -37 104 -113 104h-124zM331 -163l-12 2c-23 2 -50 23 -50 58c0 36 29 64 65 64c35 0 64 -29 64 -73
c0 -58 -44 -124 -95 -167h-49c31 22 65 80 65 112z" />
    <glyph glyph-name="S" unicode="S" horiz-adv-x="608" 
d="M571 524l-134 -37c-16 70 -77 106 -139 106c-64 0 -105 -31 -105 -73c0 -56 79 -76 167 -106c102 -35 219 -89 219 -214s-108 -214 -268 -214c-147 0 -248 83 -286 210l134 36c15 -63 71 -122 158 -122c75 0 114 37 114 84c0 71 -95 88 -194 123c-83 30 -187 73 -187 195
c0 109 108 202 256 202c131 0 235 -80 265 -190z" />
    <glyph glyph-name="Sacute" unicode="&#x15a;" horiz-adv-x="608" 
d="M430 929l48 -95l-238 -103l-41 74zM571 524l-134 -37c-16 70 -77 106 -139 106c-64 0 -105 -31 -105 -73c0 -56 79 -76 167 -106c102 -35 219 -89 219 -214s-108 -214 -268 -214c-147 0 -248 83 -286 210l134 36c15 -63 71 -122 158 -122c75 0 114 37 114 84
c0 71 -95 88 -194 123c-83 30 -187 73 -187 195c0 109 108 202 256 202c131 0 235 -80 265 -190z" />
    <glyph glyph-name="Scaron" unicode="&#x160;" horiz-adv-x="608" 
d="M128 883l187 -159l186 159l-67 69l-119 -99l-119 99zM571 524l-134 -37c-16 70 -77 106 -139 106c-64 0 -105 -31 -105 -73c0 -56 79 -76 167 -106c102 -35 219 -89 219 -214s-108 -214 -268 -214c-147 0 -248 83 -286 210l134 36c15 -63 71 -122 158 -122
c75 0 114 37 114 84c0 71 -95 88 -194 123c-83 30 -187 73 -187 195c0 109 108 202 256 202c131 0 235 -80 265 -190z" />
    <glyph glyph-name="Scedilla" unicode="&#x15e;" horiz-adv-x="608" 
d="M571 524l-134 -37c-16 70 -77 106 -139 106c-64 0 -105 -31 -105 -73c0 -56 79 -76 167 -106c102 -35 219 -89 219 -214c0 -111 -85 -194 -217 -211l-16 -43c57 1 107 -38 107 -101c0 -75 -53 -106 -116 -106h-106l29 74h77c27 0 38 14 38 31c0 18 -15 30 -38 31h-92
l39 112c-133 10 -223 90 -259 209l134 36c15 -63 71 -122 158 -122c75 0 114 37 114 84c0 71 -95 88 -194 123c-83 30 -187 73 -187 195c0 109 108 202 256 202c131 0 235 -80 265 -190z" />
    <glyph glyph-name="Scircumflex" unicode="&#x15c;" horiz-adv-x="608" 
d="M125 800l187 159l186 -159l-67 -69l-119 99l-119 -99zM571 524l-134 -37c-16 70 -77 106 -139 106c-64 0 -105 -31 -105 -73c0 -56 79 -76 167 -106c102 -35 219 -89 219 -214s-108 -214 -268 -214c-147 0 -248 83 -286 210l134 36c15 -63 71 -122 158 -122
c75 0 114 37 114 84c0 71 -95 88 -194 123c-83 30 -187 73 -187 195c0 109 108 202 256 202c131 0 235 -80 265 -190z" />
    <glyph glyph-name="Scommaaccent" unicode="&#x218;" horiz-adv-x="608" 
d="M571 524l-134 -37c-16 70 -77 106 -139 106c-64 0 -105 -31 -105 -73c0 -56 79 -76 167 -106c102 -35 219 -89 219 -214s-108 -214 -268 -214c-147 0 -248 83 -286 210l134 36c15 -63 71 -122 158 -122c75 0 114 37 114 84c0 71 -95 88 -194 123c-83 30 -187 73 -187 195
c0 109 108 202 256 202c131 0 235 -80 265 -190zM285 -167l12 4l-12 2c-23 2 -50 23 -50 58c0 36 29 64 65 64c35 0 64 -29 64 -73c0 -58 -44 -124 -95 -167h-49c31 22 65 80 65 112z" />
    <glyph glyph-name="T" unicode="T" horiz-adv-x="605" 
d="M14 700h577v-130h-220v-570h-139v570h-218v130z" />
    <glyph glyph-name="Tbar" unicode="&#x166;" horiz-adv-x="605" 
d="M591 570h-220v-150h109v-106h-109v-314h-139v314h-109v106h109v150h-218v130h577v-130z" />
    <glyph glyph-name="Tcaron" unicode="&#x164;" horiz-adv-x="605" 
d="M502 883l-186 -159l-187 159l68 69l119 -99l119 99zM14 700h577v-130h-220v-570h-139v570h-218v130z" />
    <glyph glyph-name="Tcedilla" unicode="&#x162;" horiz-adv-x="605" 
d="M371 0h-40l-20 -54c57 1 107 -38 107 -101c0 -75 -53 -106 -116 -106h-106l29 74h77c27 0 38 14 38 31c0 18 -15 30 -38 31h-92l43 125h-21v570h-218v130h577v-130h-220v-570z" />
    <glyph glyph-name="uni021A" unicode="&#x21a;" horiz-adv-x="605" 
d="M14 700h577v-130h-220v-570h-139v570h-218v130zM308 -163l-12 2c-23 2 -50 23 -50 58c0 36 29 64 65 64c35 0 64 -29 64 -73c0 -58 -44 -124 -95 -167h-49c31 22 65 80 65 112z" />
    <glyph glyph-name="Thorn" unicode="&#xde;" horiz-adv-x="636" 
d="M222 585h118c156 0 261 -98 261 -234s-105 -234 -261 -234h-118v-117h-139v700h139v-115zM222 247h121c71 0 113 43 113 104c0 60 -42 104 -113 103h-121v-207z" />
    <glyph glyph-name="U" unicode="U" horiz-adv-x="740" 
d="M532 700h140v-396c0 -206 -118 -318 -302 -318c-185 0 -302 112 -302 318v396h139v-394c0 -130 56 -190 163 -190c106 0 162 60 162 190v394z" />
    <glyph glyph-name="Uacute" unicode="&#xda;" horiz-adv-x="740" 
d="M486 929l48 -95l-238 -103l-41 74zM532 700h140v-396c0 -206 -118 -318 -302 -318c-185 0 -302 112 -302 318v396h139v-394c0 -130 56 -190 163 -190c106 0 162 60 162 190v394z" />
    <glyph glyph-name="Ubreve" unicode="&#x16c;" horiz-adv-x="740" 
d="M191 888h102c8 -31 37 -59 79 -59c40 0 70 28 78 59h100c-19 -85 -91 -145 -178 -145c-93 0 -163 60 -181 145zM532 700h140v-396c0 -206 -118 -318 -302 -318c-185 0 -302 112 -302 318v396h139v-394c0 -130 56 -190 163 -190c106 0 162 60 162 190v394z" />
    <glyph glyph-name="Ucircumflex" unicode="&#xdb;" horiz-adv-x="740" 
d="M181 800l187 159l186 -159l-67 -69l-119 99l-119 -99zM532 700h140v-396c0 -206 -118 -318 -302 -318c-185 0 -302 112 -302 318v396h139v-394c0 -130 56 -190 163 -190c106 0 162 60 162 190v394z" />
    <glyph glyph-name="Udieresis" unicode="&#xdc;" horiz-adv-x="740" 
d="M239 767c-38 0 -67 28 -67 65c0 36 29 65 67 65c36 0 65 -29 65 -65c0 -37 -29 -65 -65 -65zM497 767c-37 0 -66 28 -66 65c0 36 29 65 66 65c36 0 65 -29 65 -65c0 -37 -29 -65 -65 -65zM532 700h140v-396c0 -206 -118 -318 -302 -318c-185 0 -302 112 -302 318v396h139
v-394c0 -130 56 -190 163 -190c106 0 162 60 162 190v394z" />
    <glyph glyph-name="Ugrave" unicode="&#xd9;" horiz-adv-x="740" 
d="M425 731l-239 103l49 95l230 -124zM532 700h140v-396c0 -206 -118 -318 -302 -318c-185 0 -302 112 -302 318v396h139v-394c0 -130 56 -190 163 -190c106 0 162 60 162 190v394z" />
    <glyph glyph-name="Uhungarumlaut" unicode="&#x170;" horiz-adv-x="740" 
d="M370 796l-152 -65l-40 74l231 124l40 -79l147 79l48 -95l-239 -103zM532 700h140v-396c0 -206 -118 -318 -302 -318c-185 0 -302 112 -302 318v396h139v-394c0 -130 56 -190 163 -190c106 0 162 60 162 190v394z" />
    <glyph glyph-name="Umacron" unicode="&#x16a;" horiz-adv-x="740" 
d="M206 878h339v-108h-339v108zM532 700h140v-396c0 -206 -118 -318 -302 -318c-185 0 -302 112 -302 318v396h139v-394c0 -130 56 -190 163 -190c106 0 162 60 162 190v394z" />
    <glyph glyph-name="Uogonek" unicode="&#x172;" horiz-adv-x="740" 
d="M672 700v-396c0 -163 -73 -267 -195 -303c-46 -19 -88 -44 -88 -95c0 -35 25 -64 68 -64c34 0 70 28 87 62l71 -47c-28 -58 -94 -102 -158 -102c-92 0 -165 55 -165 140c0 40 19 71 44 92c-165 14 -268 124 -268 317v396h139v-394c0 -130 56 -190 163 -190
c106 0 162 60 162 190v394h140z" />
    <glyph glyph-name="Uring" unicode="&#x16e;" horiz-adv-x="740" 
d="M371 681c-75 0 -137 62 -137 137c0 74 62 136 137 136s137 -62 137 -136c0 -75 -62 -137 -137 -137zM371 764c31 0 56 25 56 54c0 32 -25 57 -56 57c-29 0 -55 -25 -55 -57c0 -29 26 -54 55 -54zM532 700h140v-396c0 -206 -118 -318 -302 -318c-185 0 -302 112 -302 318
v396h139v-394c0 -130 56 -190 163 -190c106 0 162 60 162 190v394z" />
    <glyph glyph-name="V" unicode="V" horiz-adv-x="719" 
d="M560 700h152l-279 -700h-148l-279 700h152l161 -424c24 -69 39 -121 40 -121h1c1 0 15 52 40 121z" />
    <glyph glyph-name="W" unicode="W" horiz-adv-x="1027" 
d="M858 700h147l-220 -700h-129l-108 338c-25 79 -33 124 -34 124h-1c-1 0 -8 -45 -33 -124l-108 -338h-130l-220 700h148l110 -378c17 -64 27 -109 28 -109h1c1 0 11 45 34 109l106 303h129l106 -303c23 -64 33 -109 34 -109h1c1 0 11 45 29 109z" />
    <glyph glyph-name="Wacute" unicode="&#x1e82;" horiz-adv-x="1027" 
d="M628 929l48 -95l-238 -103l-41 74zM858 700h147l-220 -700h-129l-108 338c-25 79 -33 124 -34 124h-1c-1 0 -8 -45 -33 -124l-108 -338h-130l-220 700h148l110 -378c17 -64 27 -109 28 -109h1c1 0 11 45 34 109l106 303h129l106 -303c23 -64 33 -109 34 -109h1
c1 0 11 45 29 109z" />
    <glyph glyph-name="Wcircumflex" unicode="&#x174;" horiz-adv-x="1027" 
d="M323 800l187 159l186 -159l-67 -69l-119 99l-119 -99zM858 700h147l-220 -700h-129l-108 338c-25 79 -33 124 -34 124h-1c-1 0 -8 -45 -33 -124l-108 -338h-130l-220 700h148l110 -378c17 -64 27 -109 28 -109h1c1 0 11 45 34 109l106 303h129l106 -303
c23 -64 33 -109 34 -109h1c1 0 11 45 29 109z" />
    <glyph glyph-name="Wdieresis" unicode="&#x1e84;" horiz-adv-x="1027" 
d="M381 767c-38 0 -67 28 -67 65c0 36 29 65 67 65c36 0 65 -29 65 -65c0 -37 -29 -65 -65 -65zM639 767c-37 0 -66 28 -66 65c0 36 29 65 66 65c36 0 65 -29 65 -65c0 -37 -29 -65 -65 -65zM858 700h147l-220 -700h-129l-108 338c-25 79 -33 124 -34 124h-1
c-1 0 -8 -45 -33 -124l-108 -338h-130l-220 700h148l110 -378c17 -64 27 -109 28 -109h1c1 0 11 45 34 109l106 303h129l106 -303c23 -64 33 -109 34 -109h1c1 0 11 45 29 109z" />
    <glyph glyph-name="Wgrave" unicode="&#x1e80;" horiz-adv-x="1027" 
d="M567 731l-239 103l49 95l230 -124zM858 700h147l-220 -700h-129l-108 338c-25 79 -33 124 -34 124h-1c-1 0 -8 -45 -33 -124l-108 -338h-130l-220 700h148l110 -378c17 -64 27 -109 28 -109h1c1 0 11 45 34 109l106 303h129l106 -303c23 -64 33 -109 34 -109h1
c1 0 11 45 29 109z" />
    <glyph glyph-name="X" unicode="X" horiz-adv-x="682" 
d="M342 242h-1c-1 0 -39 -65 -51 -83l-112 -159h-166l245 359l-231 341h167l108 -161c10 -16 39 -68 40 -68h1c1 0 29 52 39 68l108 161h168l-232 -341l245 -359h-166l-112 159c-12 18 -49 83 -50 83z" />
    <glyph glyph-name="Y" unicode="Y" horiz-adv-x="701" 
d="M532 700h157l-270 -379v-321h-138v321l-269 379h156l144 -201c19 -28 37 -52 38 -52h1c1 0 19 24 38 52z" />
    <glyph glyph-name="Yacute" unicode="&#xdd;" horiz-adv-x="701" 
d="M465 929l48 -95l-238 -103l-41 74zM532 700h157l-270 -379v-321h-138v321l-269 379h156l144 -201c19 -28 37 -52 38 -52h1c1 0 19 24 38 52z" />
    <glyph glyph-name="Ycircumflex" unicode="&#x176;" horiz-adv-x="701" 
d="M160 800l187 159l186 -159l-67 -69l-119 99l-119 -99zM532 700h157l-270 -379v-321h-138v321l-269 379h156l144 -201c19 -28 37 -52 38 -52h1c1 0 19 24 38 52z" />
    <glyph glyph-name="Ydieresis" unicode="&#x178;" horiz-adv-x="701" 
d="M218 767c-38 0 -67 28 -67 65c0 36 29 65 67 65c36 0 65 -29 65 -65c0 -37 -29 -65 -65 -65zM476 767c-37 0 -66 28 -66 65c0 36 29 65 66 65c36 0 65 -29 65 -65c0 -37 -29 -65 -65 -65zM532 700h157l-270 -379v-321h-138v321l-269 379h156l144 -201
c19 -28 37 -52 38 -52h1c1 0 19 24 38 52z" />
    <glyph glyph-name="Ygrave" unicode="&#x1ef2;" horiz-adv-x="701" 
d="M404 731l-239 103l49 95l230 -124zM532 700h157l-270 -379v-321h-138v321l-269 379h156l144 -201c19 -28 37 -52 38 -52h1c1 0 19 24 38 52z" />
    <glyph glyph-name="Z" unicode="Z" horiz-adv-x="705" 
d="M645 700v-130l-336 -378c-30 -33 -60 -63 -60 -64l1 -1c1 0 45 3 102 3h293v-130h-585v130l347 383c23 26 61 57 61 58l-1 1c-1 0 -57 -2 -103 -2h-294v130h575z" />
    <glyph glyph-name="Zacute" unicode="&#x179;" horiz-adv-x="705" 
d="M475 929l48 -95l-238 -103l-41 74zM645 700v-130l-336 -378c-30 -33 -60 -63 -60 -64l1 -1c1 0 45 3 102 3h293v-130h-585v130l347 383c23 26 61 57 61 58l-1 1c-1 0 -57 -2 -103 -2h-294v130h575z" />
    <glyph glyph-name="Zcaron" unicode="&#x17d;" horiz-adv-x="705" 
d="M173 883l187 -159l186 159l-67 69l-119 -99l-119 99zM645 700v-130l-336 -378c-30 -33 -60 -63 -60 -64l1 -1c1 0 45 3 102 3h293v-130h-585v130l347 383c23 26 61 57 61 58l-1 1c-1 0 -57 -2 -103 -2h-294v130h575z" />
    <glyph glyph-name="Zdotaccent" unicode="&#x17b;" horiz-adv-x="705" 
d="M360 766c-36 0 -66 29 -66 66c0 36 30 65 66 65s65 -29 65 -65c0 -37 -29 -66 -65 -66zM645 700v-130l-336 -378c-30 -33 -60 -63 -60 -64l1 -1c1 0 45 3 102 3h293v-130h-585v130l347 383c23 26 61 57 61 58l-1 1c-1 0 -57 -2 -103 -2h-294v130h575z" />
    <glyph glyph-name="a" unicode="a" horiz-adv-x="719" 
d="M563 0l-52 134h-303l-52 -134h-150l288 700h131l288 -700h-150zM256 257h207l-69 177c-15 39 -33 97 -34 97h-1c-1 0 -19 -58 -34 -97z" />
    <glyph glyph-name="aacute" unicode="&#xe1;" horiz-adv-x="719" 
d="M522 834l-238 -103l-41 74l231 124zM563 0l-52 134h-303l-52 -134h-150l288 700h131l288 -700h-150zM256 257h207l-69 177c-15 39 -33 97 -34 97h-1c-1 0 -19 -58 -34 -97z" />
    <glyph glyph-name="abreve" unicode="&#x103;" horiz-adv-x="719" 
d="M438 888h100c-19 -85 -91 -145 -178 -145c-93 0 -163 60 -181 145h102c8 -31 37 -59 79 -59c40 0 70 28 78 59zM563 0l-52 134h-303l-52 -134h-150l288 700h131l288 -700h-150zM256 257h207l-69 177c-15 39 -33 97 -34 97h-1c-1 0 -19 -58 -34 -97z" />
    <glyph glyph-name="acircumflex" unicode="&#xe2;" horiz-adv-x="719" 
d="M356 830l-119 -99l-68 69l187 159l186 -159l-67 -69zM563 0l-52 134h-303l-52 -134h-150l288 700h131l288 -700h-150zM256 257h207l-69 177c-15 39 -33 97 -34 97h-1c-1 0 -19 -58 -34 -97z" />
    <glyph glyph-name="adieresis" unicode="&#xe4;" horiz-adv-x="719" 
d="M227 767c-38 0 -67 28 -67 65c0 36 29 65 67 65c36 0 65 -29 65 -65c0 -37 -29 -65 -65 -65zM485 767c-37 0 -66 28 -66 65c0 36 29 65 66 65c36 0 65 -29 65 -65c0 -37 -29 -65 -65 -65zM563 0l-52 134h-303l-52 -134h-150l288 700h131l288 -700h-150zM256 257h207
l-69 177c-15 39 -33 97 -34 97h-1c-1 0 -19 -58 -34 -97z" />
    <glyph glyph-name="ae" unicode="&#xe6;" horiz-adv-x="1013" 
d="M584 130h361v-130h-497v134h-238l-53 -134h-151l291 700h642v-130h-355v-149h281v-122h-281v-169zM448 257v313h-71c-1 0 -33 -89 -54 -145l-65 -168h190z" />
    <glyph glyph-name="agrave" unicode="&#xe0;" horiz-adv-x="719" 
d="M453 805l-40 -74l-239 103l49 95zM563 0l-52 134h-303l-52 -134h-150l288 700h131l288 -700h-150zM256 257h207l-69 177c-15 39 -33 97 -34 97h-1c-1 0 -19 -58 -34 -97z" />
    <glyph glyph-name="amacron" unicode="&#x101;" horiz-adv-x="719" 
d="M533 878v-108h-339v108h339zM563 0l-52 134h-303l-52 -134h-150l288 700h131l288 -700h-150zM256 257h207l-69 177c-15 39 -33 97 -34 97h-1c-1 0 -19 -58 -34 -97z" />
    <glyph glyph-name="aogonek" unicode="&#x105;" horiz-adv-x="719" 
d="M687 -97l73 -46c-33 -65 -97 -102 -165 -102c-100 0 -173 58 -173 155c0 85 72 140 119 147l-30 77h-303l-52 -134h-150l288 700h131l288 -700h-72c-53 0 -121 -26 -121 -90c0 -35 26 -68 75 -68c42 0 75 25 92 61zM256 257h207l-69 177c-15 39 -33 97 -34 97h-1
c-1 0 -19 -58 -34 -97z" />
    <glyph glyph-name="aring" unicode="&#xe5;" horiz-adv-x="719" 
d="M563 0l-52 134h-303l-52 -134h-150l287 698c-42 24 -71 69 -71 120c0 74 62 136 137 136s137 -62 137 -136c0 -51 -29 -96 -70 -119l287 -699h-150zM359 875c-29 0 -55 -25 -55 -57c0 -29 26 -54 55 -54c31 0 56 25 56 54c0 32 -25 57 -56 57zM256 257h207l-69 177
c-15 39 -33 97 -34 97h-1c-1 0 -19 -58 -34 -97z" />
    <glyph glyph-name="atilde" unicode="&#xe3;" horiz-adv-x="719" 
d="M473 884h109c0 -80 -59 -138 -142 -138c-69 0 -104 60 -149 60c-27 0 -46 -18 -46 -44h-109c0 80 60 139 142 139c73 0 105 -61 149 -61c27 0 46 19 46 44zM563 0l-52 134h-303l-52 -134h-150l288 700h131l288 -700h-150zM256 257h207l-69 177c-15 39 -33 97 -34 97h-1
c-1 0 -19 -58 -34 -97z" />
    <glyph glyph-name="b" unicode="b" horiz-adv-x="656" 
d="M83 700h290c124 0 209 -79 209 -181c0 -67 -50 -125 -97 -139v-1c67 -15 136 -88 136 -169c0 -118 -79 -210 -244 -210h-294v700zM222 421h123c57 0 97 36 97 81c0 47 -40 80 -97 80h-123v-161zM222 118h142c66 0 111 39 111 98s-49 98 -112 98h-141v-196z" />
    <glyph glyph-name="c" unicode="c" horiz-adv-x="756" 
d="M719 529l-142 -37c-37 52 -107 85 -176 85c-131 0 -218 -94 -218 -227c0 -137 93 -225 218 -225c80 0 154 42 189 103l140 -37c-58 -124 -182 -205 -329 -205c-201 0 -363 153 -363 364s162 364 363 364c138 0 256 -73 318 -185z" />
    <glyph glyph-name="cacute" unicode="&#x107;" horiz-adv-x="756" 
d="M514 929l48 -95l-238 -103l-41 74zM719 529l-142 -37c-37 52 -107 85 -176 85c-131 0 -218 -94 -218 -227c0 -137 93 -225 218 -225c80 0 154 42 189 103l140 -37c-58 -124 -182 -205 -329 -205c-201 0 -363 153 -363 364s162 364 363 364c138 0 256 -73 318 -185z" />
    <glyph glyph-name="ccaron" unicode="&#x10d;" horiz-adv-x="756" 
d="M212 883l187 -159l186 159l-67 69l-119 -99l-119 99zM719 529l-142 -37c-37 52 -107 85 -176 85c-131 0 -218 -94 -218 -227c0 -137 93 -225 218 -225c80 0 154 42 189 103l140 -37c-58 -124 -182 -205 -329 -205c-201 0 -363 153 -363 364s162 364 363 364
c138 0 256 -73 318 -185z" />
    <glyph glyph-name="ccedilla" unicode="&#xe7;" horiz-adv-x="756" 
d="M590 228l140 -37c-54 -116 -166 -194 -300 -204l-15 -41c57 1 107 -38 107 -101c0 -75 -53 -106 -116 -106h-106l29 74h77c27 0 38 14 38 31c0 18 -15 30 -38 31h-92l39 114c-178 22 -315 167 -315 361c0 211 162 364 363 364c138 0 256 -73 318 -185l-142 -37
c-37 52 -107 85 -176 85c-131 0 -218 -94 -218 -227c0 -137 93 -225 218 -225c80 0 154 42 189 103z" />
    <glyph glyph-name="cdotaccent" unicode="&#x10b;" horiz-adv-x="756" 
d="M399 766c-36 0 -66 29 -66 66c0 36 30 65 66 65s65 -29 65 -65c0 -37 -29 -66 -65 -66zM719 529l-142 -37c-37 52 -107 85 -176 85c-131 0 -218 -94 -218 -227c0 -137 93 -225 218 -225c80 0 154 42 189 103l140 -37c-58 -124 -182 -205 -329 -205
c-201 0 -363 153 -363 364s162 364 363 364c138 0 256 -73 318 -185z" />
    <glyph glyph-name="d" unicode="d" horiz-adv-x="785" 
d="M83 700h302c200 0 362 -143 362 -353c0 -209 -161 -347 -360 -347h-304v700zM222 130h165c116 0 216 81 216 217s-100 223 -218 223h-163v-440z" />
    <glyph glyph-name="dcaron" unicode="&#x10f;" horiz-adv-x="785" 
d="M198 883l187 -159l186 159l-67 69l-119 -99l-119 99zM83 700h302c200 0 362 -143 362 -353c0 -209 -161 -347 -360 -347h-304v700zM222 130h165c116 0 216 81 216 217s-100 223 -218 223h-163v-440z" />
    <glyph glyph-name="dcroat" unicode="&#x111;" horiz-adv-x="796" 
d="M94 700h302c200 0 362 -143 362 -353c0 -209 -161 -347 -360 -347h-304v292h-56v125h56v283zM233 130h165c116 0 216 81 216 217s-100 223 -218 223h-163v-153h131v-125h-131v-162z" />
    <glyph glyph-name="dotlessi" unicode="&#x131;" horiz-adv-x="305" 
d="M222 0h-139v700h139v-700z" />
    <glyph glyph-name="dotlessj" unicode="&#x237;" horiz-adv-x="671" 
d="M464 700h139v-396c0 -204 -122 -318 -308 -318c-133 0 -243 76 -284 179l137 37c26 -54 79 -86 147 -86c108 0 169 70 169 182v402z" />
    <glyph glyph-name="e" unicode="e" horiz-adv-x="652" 
d="M222 130h362v-130h-501v700h495v-130h-356v-149h281v-122h-281v-169z" />
    <glyph glyph-name="eacute" unicode="&#xe9;" horiz-adv-x="652" 
d="M505 834l-238 -103l-41 74l231 124zM222 130h362v-130h-501v700h495v-130h-356v-149h281v-122h-281v-169z" />
    <glyph glyph-name="ecaron" unicode="&#x11b;" horiz-adv-x="652" 
d="M528 883l-186 -159l-187 159l68 69l119 -99l119 99zM222 130h362v-130h-501v700h495v-130h-356v-149h281v-122h-281v-169z" />
    <glyph glyph-name="ecircumflex" unicode="&#xea;" horiz-adv-x="652" 
d="M339 830l-119 -99l-68 69l187 159l186 -159l-67 -69zM222 130h362v-130h-501v700h495v-130h-356v-149h281v-122h-281v-169z" />
    <glyph glyph-name="edieresis" unicode="&#xeb;" horiz-adv-x="652" 
d="M210 767c-38 0 -67 28 -67 65c0 36 29 65 67 65c36 0 65 -29 65 -65c0 -37 -29 -65 -65 -65zM468 767c-37 0 -66 28 -66 65c0 36 29 65 66 65c36 0 65 -29 65 -65c0 -37 -29 -65 -65 -65zM222 130h362v-130h-501v700h495v-130h-356v-149h281v-122h-281v-169z" />
    <glyph glyph-name="edotaccent" unicode="&#x117;" horiz-adv-x="652" 
d="M343 766c-36 0 -66 29 -66 66c0 36 30 65 66 65s65 -29 65 -65c0 -37 -29 -66 -65 -66zM222 130h362v-130h-501v700h495v-130h-356v-149h281v-122h-281v-169z" />
    <glyph glyph-name="egrave" unicode="&#xe8;" horiz-adv-x="652" 
d="M436 805l-40 -74l-239 103l49 95zM222 130h362v-130h-501v700h495v-130h-356v-149h281v-122h-281v-169z" />
    <glyph glyph-name="emacron" unicode="&#x113;" horiz-adv-x="652" 
d="M516 878v-108h-339v108h339zM222 130h362v-130h-501v700h495v-130h-356v-149h281v-122h-281v-169z" />
    <glyph glyph-name="eng" unicode="&#x14b;" horiz-adv-x="776" 
d="M554 700h139v-700c0 -135 -93 -233 -219 -233h-41v112h29c62 0 100 48 100 121l-199 270c-63 86 -140 196 -141 196h-1c-1 0 1 -101 1 -240v-226h-139v700h131l203 -273c48 -63 136 -188 137 -188h1c1 0 -1 114 -1 232v229z" />
    <glyph glyph-name="eogonek" unicode="&#x119;" horiz-adv-x="652" 
d="M527 -97l73 -46c-33 -65 -97 -102 -165 -102c-100 0 -173 58 -173 155c0 36 13 66 31 90h-210v700h495v-130h-356v-149h281v-122h-281v-169h362v-130h-103c-53 0 -121 -26 -121 -90c0 -35 26 -68 75 -68c42 0 75 25 92 61z" />
    <glyph glyph-name="eth" unicode="&#xf0;" horiz-adv-x="796" 
d="M94 700h302c200 0 362 -143 362 -353c0 -209 -161 -347 -360 -347h-304v292h-56v125h56v283zM233 130h165c116 0 216 81 216 217s-100 223 -218 223h-163v-153h131v-125h-131v-162z" />
    <glyph glyph-name="f" unicode="f" horiz-adv-x="603" 
d="M568 570h-346v-171h271v-125h-271v-274h-139v700h485v-130z" />
    <glyph glyph-name="g" unicode="g" horiz-adv-x="793" 
d="M614 73h-1c-38 -43 -121 -87 -212 -87c-201 0 -363 153 -363 364s162 364 363 364c139 -1 255 -73 318 -185l-142 -37c-38 52 -107 85 -176 85c-131 0 -218 -94 -218 -227c0 -139 96 -228 226 -228c120 0 183 66 205 120v30h-194v113h313v-385h-120c0 58 1 72 1 73z" />
    <glyph glyph-name="gbreve" unicode="&#x11f;" horiz-adv-x="793" 
d="M218 888h102c8 -31 37 -59 79 -59c40 0 70 28 78 59h100c-19 -85 -91 -145 -178 -145c-93 0 -163 60 -181 145zM614 73h-1c-38 -43 -121 -87 -212 -87c-201 0 -363 153 -363 364s162 364 363 364c139 -1 255 -73 318 -185l-142 -37c-38 52 -107 85 -176 85
c-131 0 -218 -94 -218 -227c0 -139 96 -228 226 -228c120 0 183 66 205 120v30h-194v113h313v-385h-120c0 58 1 72 1 73z" />
    <glyph glyph-name="gcircumflex" unicode="&#x11d;" horiz-adv-x="793" 
d="M208 800l187 159l186 -159l-67 -69l-119 99l-119 -99zM614 73h-1c-38 -43 -121 -87 -212 -87c-201 0 -363 153 -363 364s162 364 363 364c139 -1 255 -73 318 -185l-142 -37c-38 52 -107 85 -176 85c-131 0 -218 -94 -218 -227c0 -139 96 -228 226 -228
c120 0 183 66 205 120v30h-194v113h313v-385h-120c0 58 1 72 1 73z" />
    <glyph glyph-name="gcommaaccent" unicode="&#x123;" horiz-adv-x="793" 
d="M614 73h-1c-38 -43 -121 -87 -212 -87c-201 0 -363 153 -363 364s162 364 363 364c139 -1 255 -73 318 -185l-142 -37c-38 52 -107 85 -176 85c-131 0 -218 -94 -218 -227c0 -139 96 -228 226 -228c120 0 183 66 205 120v30h-194v113h313v-385h-120c0 58 1 72 1 73z
M381 -167l12 4l-12 2c-23 2 -50 23 -50 58c0 36 29 64 65 64c35 0 64 -29 64 -73c0 -58 -44 -124 -95 -167h-49c31 22 65 80 65 112z" />
    <glyph glyph-name="gdotaccent" unicode="&#x121;" horiz-adv-x="793" 
d="M398 766c-36 0 -66 29 -66 66c0 36 30 65 66 65s65 -29 65 -65c0 -37 -29 -66 -65 -66zM614 73h-1c-38 -43 -121 -87 -212 -87c-201 0 -363 153 -363 364s162 364 363 364c139 -1 255 -73 318 -185l-142 -37c-38 52 -107 85 -176 85c-131 0 -218 -94 -218 -227
c0 -139 96 -228 226 -228c120 0 183 66 205 120v30h-194v113h313v-385h-120c0 58 1 72 1 73z" />
    <glyph glyph-name="germandbls" unicode="&#xdf;" horiz-adv-x="810" 
d="M83 700h622l-105 -196c-21 -40 -49 -93 -49 -94l1 -1h5c119 1 215 -90 215 -203c0 -122 -93 -220 -243 -220c-108 0 -197 55 -243 136l132 36c26 -34 60 -54 104 -54c73 0 110 47 110 104c0 52 -38 100 -113 100h-101v101l46 91c15 31 35 70 35 71l-1 1
c-1 0 -33 -2 -68 -2h-208v-570h-139v700z" />
    <glyph glyph-name="h" unicode="h" horiz-adv-x="747" 
d="M525 700h139v-700h-139v289h-303v-289h-139v700h139v-280h303v280z" />
    <glyph glyph-name="hbar" unicode="&#x127;" horiz-adv-x="747" 
d="M733 633v-114h-69v-519h-139v289h-303v-289h-139v519h-69v114h69v67h139v-67h303v67h139v-67h69zM525 420v99h-303v-99h303z" />
    <glyph glyph-name="hcircumflex" unicode="&#x125;" horiz-adv-x="747" 
d="M370 830l-119 -99l-68 69l187 159l186 -159l-67 -69zM525 700h139v-700h-139v289h-303v-289h-139v700h139v-280h303v280z" />
    <glyph glyph-name="i" unicode="i" horiz-adv-x="305" 
d="M222 0h-139v700h139v-700z" />
    <glyph glyph-name="iacute" unicode="&#xed;" horiz-adv-x="305" 
d="M268 929l48 -95l-238 -103l-41 74zM222 0h-139v700h139v-700z" />
    <glyph glyph-name="icircumflex" unicode="&#xee;" horiz-adv-x="305" 
d="M-37 800l187 159l186 -159l-67 -69l-119 99l-119 -99zM222 0h-139v700h139v-700z" />
    <glyph glyph-name="idieresis" unicode="&#xef;" horiz-adv-x="305" 
d="M21 767c-38 0 -67 28 -67 65c0 36 29 65 67 65c36 0 65 -29 65 -65c0 -37 -29 -65 -65 -65zM279 767c-37 0 -66 28 -66 65c0 36 29 65 66 65c36 0 65 -29 65 -65c0 -37 -29 -65 -65 -65zM222 0h-139v700h139v-700z" />
    <glyph glyph-name="igrave" unicode="&#xec;" horiz-adv-x="305" 
d="M207 731l-239 103l49 95l230 -124zM222 0h-139v700h139v-700z" />
    <glyph glyph-name="ij" unicode="&#x133;" horiz-adv-x="962" 
d="M222 0h-139v700h139v-700zM755 700h139v-396c0 -204 -122 -318 -308 -318c-133 0 -243 76 -284 179l137 37c26 -54 79 -86 147 -86c108 0 169 70 169 182v402z" />
    <glyph glyph-name="imacron" unicode="&#x12b;" horiz-adv-x="305" 
d="M-12 878h339v-108h-339v108zM222 0h-139v700h139v-700z" />
    <glyph glyph-name="iogonek" unicode="&#x12f;" horiz-adv-x="305" 
d="M225 -97l73 -46c-33 -65 -97 -102 -165 -102c-100 0 -173 58 -173 155c0 88 77 144 123 148v642h139v-700h-43c-53 0 -121 -26 -121 -90c0 -35 26 -68 75 -68c42 0 75 25 92 61z" />
    <glyph glyph-name="j" unicode="j" horiz-adv-x="671" 
d="M464 700h139v-396c0 -204 -122 -318 -308 -318c-133 0 -243 76 -284 179l137 37c26 -54 79 -86 147 -86c108 0 169 70 169 182v402z" />
    <glyph glyph-name="jcircumflex" unicode="&#x135;" horiz-adv-x="671" 
d="M344 800l187 159l186 -159l-67 -69l-119 99l-119 -99zM464 700h139v-396c0 -204 -122 -318 -308 -318c-133 0 -243 76 -284 179l137 37c26 -54 79 -86 147 -86c108 0 169 70 169 182v402z" />
    <glyph glyph-name="k" unicode="k" horiz-adv-x="718" 
d="M694 0h-165l-229 314l-78 -78v-236h-139v700h139v-138c0 -115 -2 -157 -1 -157h1c1 0 35 38 100 103l192 192h171l-293 -294z" />
    <glyph glyph-name="kcommaaccent" unicode="&#x137;" horiz-adv-x="718" 
d="M392 406l302 -406h-165l-229 314l-78 -78v-236h-139v700h139v-138c0 -115 -2 -157 -1 -157h1c1 0 35 38 100 103l192 192h171zM360 -163l-12 2c-23 2 -50 23 -50 58c0 36 29 64 65 64c35 0 64 -29 64 -73c0 -58 -44 -124 -95 -167h-49c31 22 65 80 65 112z" />
    <glyph glyph-name="l" unicode="l" horiz-adv-x="588" 
d="M222 130h346v-130h-485v700h139v-570z" />
    <glyph glyph-name="lacute" unicode="&#x13a;" horiz-adv-x="588" 
d="M325 834l-238 -103l-41 74l231 124zM222 130h346v-130h-485v700h139v-570z" />
    <glyph glyph-name="lcaron" unicode="&#x13e;" horiz-adv-x="588" 
d="M374 582l-14 1c-24 3 -53 25 -53 63c0 39 31 69 70 69c38 0 69 -32 69 -79c0 -62 -47 -134 -102 -180h-53c33 24 69 87 69 121zM222 130h346v-130h-485v700h139v-570z" />
    <glyph glyph-name="lcommaaccent" unicode="&#x13c;" horiz-adv-x="588" 
d="M222 130h346v-130h-485v700h139v-570zM283 -163l-12 2c-23 2 -50 23 -50 58c0 36 29 64 65 64c35 0 64 -29 64 -73c0 -58 -44 -124 -95 -167h-49c31 22 65 80 65 112z" />
    <glyph glyph-name="ldot" unicode="&#x140;" horiz-adv-x="588" 
d="M222 130h346v-130h-485v700h139v-570zM409 321c-36 0 -65 29 -65 66c0 36 29 65 65 65c37 0 66 -29 66 -65c0 -37 -29 -66 -66 -66z" />
    <glyph glyph-name="lslash" unicode="&#x142;" horiz-adv-x="588" 
d="M222 130h346v-130h-485v700h139v-279l254 131v-132l-254 -130v-160z" />
    <glyph glyph-name="m" unicode="m" horiz-adv-x="848" 
d="M634 700h131v-700h-137v219c0 147 5 248 4 248h-1c-1 0 -50 -86 -62 -106l-109 -188h-72l-109 188c-13 20 -62 106 -63 106h-1c-1 0 5 -101 5 -248v-219h-137v700h131l145 -240c54 -89 63 -111 64 -111h1c1 0 10 22 64 111z" />
    <glyph glyph-name="n" unicode="n" horiz-adv-x="776" 
d="M554 700h139v-700h-131l-199 270c-63 86 -140 196 -141 196h-1c-1 0 1 -101 1 -240v-226h-139v700h131l203 -273c48 -63 136 -188 137 -188h1c1 0 -1 114 -1 232v229z" />
    <glyph glyph-name="nacute" unicode="&#x144;" horiz-adv-x="776" 
d="M504 929l48 -95l-238 -103l-41 74zM554 700h139v-700h-131l-199 270c-63 86 -140 196 -141 196h-1c-1 0 1 -101 1 -240v-226h-139v700h131l203 -273c48 -63 136 -188 137 -188h1c1 0 -1 114 -1 232v229z" />
    <glyph glyph-name="ncaron" unicode="&#x148;" horiz-adv-x="776" 
d="M202 883l187 -159l186 159l-67 69l-119 -99l-119 99zM554 700h139v-700h-131l-199 270c-63 86 -140 196 -141 196h-1c-1 0 1 -101 1 -240v-226h-139v700h131l203 -273c48 -63 136 -188 137 -188h1c1 0 -1 114 -1 232v229z" />
    <glyph glyph-name="ncommaaccent" unicode="&#x146;" horiz-adv-x="776" 
d="M554 700h139v-700h-131l-199 270c-63 86 -140 196 -141 196h-1c-1 0 1 -101 1 -240v-226h-139v700h131l203 -273c48 -63 136 -188 137 -188h1c1 0 -1 114 -1 232v229zM380 -167l12 4l-12 2c-23 2 -50 23 -50 58c0 36 29 64 65 64c35 0 64 -29 64 -73
c0 -58 -44 -124 -95 -167h-49c31 22 65 80 65 112z" />
    <glyph glyph-name="ntilde" unicode="&#xf1;" horiz-adv-x="776" 
d="M503 884h109c0 -80 -59 -138 -142 -138c-69 0 -104 60 -149 60c-27 0 -46 -18 -46 -44h-109c0 80 60 139 142 139c73 0 105 -61 149 -61c27 0 46 19 46 44zM554 700h139v-700h-131l-199 270c-63 86 -140 196 -141 196h-1c-1 0 1 -101 1 -240v-226h-139v700h131l203 -273
c48 -63 136 -188 137 -188h1c1 0 -1 114 -1 232v229z" />
    <glyph glyph-name="o" unicode="o" horiz-adv-x="803" 
d="M38 350c0 211 162 364 363 364s364 -153 364 -364s-163 -364 -364 -364s-363 153 -363 364zM183 350c0 -134 90 -227 218 -227c129 0 219 93 219 227c0 135 -90 227 -219 227c-128 0 -218 -92 -218 -227z" />
    <glyph glyph-name="oacute" unicode="&#xf3;" horiz-adv-x="803" 
d="M519 929l48 -95l-238 -103l-41 74zM38 350c0 211 162 364 363 364s364 -153 364 -364s-163 -364 -364 -364s-363 153 -363 364zM183 350c0 -134 90 -227 218 -227c129 0 219 93 219 227c0 135 -90 227 -219 227c-128 0 -218 -92 -218 -227z" />
    <glyph glyph-name="ocircumflex" unicode="&#xf4;" horiz-adv-x="803" 
d="M214 800l187 159l186 -159l-67 -69l-119 99l-119 -99zM38 350c0 211 162 364 363 364s364 -153 364 -364s-163 -364 -364 -364s-363 153 -363 364zM183 350c0 -134 90 -227 218 -227c129 0 219 93 219 227c0 135 -90 227 -219 227c-128 0 -218 -92 -218 -227z" />
    <glyph glyph-name="odieresis" unicode="&#xf6;" horiz-adv-x="803" 
d="M272 767c-38 0 -67 28 -67 65c0 36 29 65 67 65c36 0 65 -29 65 -65c0 -37 -29 -65 -65 -65zM530 767c-37 0 -66 28 -66 65c0 36 29 65 66 65c36 0 65 -29 65 -65c0 -37 -29 -65 -65 -65zM38 350c0 211 162 364 363 364s364 -153 364 -364s-163 -364 -364 -364
s-363 153 -363 364zM183 350c0 -134 90 -227 218 -227c129 0 219 93 219 227c0 135 -90 227 -219 227c-128 0 -218 -92 -218 -227z" />
    <glyph glyph-name="oe" unicode="&#x153;" horiz-adv-x="1045" 
d="M616 130h361v-130h-497c-28 -4 -58 -4 -89 -4c-198 0 -353 146 -353 354s155 354 353 354c17 0 52 1 89 -4h491v-130h-355v-149h281v-122h-281v-169zM480 149v402c-24 11 -54 16 -89 16c-125 0 -208 -85 -208 -217c0 -131 83 -217 208 -217c36 0 65 5 89 16z" />
    <glyph glyph-name="ograve" unicode="&#xf2;" horiz-adv-x="803" 
d="M458 731l-239 103l49 95l230 -124zM38 350c0 211 162 364 363 364s364 -153 364 -364s-163 -364 -364 -364s-363 153 -363 364zM183 350c0 -134 90 -227 218 -227c129 0 219 93 219 227c0 135 -90 227 -219 227c-128 0 -218 -92 -218 -227z" />
    <glyph glyph-name="ohungarumlaut" unicode="&#x151;" horiz-adv-x="803" 
d="M403 796l-152 -65l-40 74l231 124l40 -79l147 79l48 -95l-239 -103zM401 714c201 0 364 -153 364 -364s-163 -364 -364 -364s-363 153 -363 364s162 364 363 364zM401 123c129 0 219 93 219 227c0 135 -90 227 -219 227c-128 0 -218 -92 -218 -227
c0 -134 90 -227 218 -227z" />
    <glyph glyph-name="omacron" unicode="&#x14d;" horiz-adv-x="803" 
d="M239 878h339v-108h-339v108zM38 350c0 211 162 364 363 364s364 -153 364 -364s-163 -364 -364 -364s-363 153 -363 364zM183 350c0 -134 90 -227 218 -227c129 0 219 93 219 227c0 135 -90 227 -219 227c-128 0 -218 -92 -218 -227z" />
    <glyph glyph-name="oslash" unicode="&#xf8;" horiz-adv-x="803" 
d="M709 647l-38 -49c59 -64 94 -150 94 -248c0 -211 -163 -364 -364 -364c-60 0 -117 14 -167 39l-37 -48l-99 74l36 48c-59 64 -96 151 -96 251c0 211 162 364 363 364c62 0 121 -15 172 -41l37 48zM222 213l266 348c-26 10 -55 16 -87 16c-128 0 -218 -92 -218 -227
c0 -53 14 -100 39 -137zM584 483l-265 -346c25 -9 53 -14 82 -14c129 0 219 93 219 227c0 51 -13 97 -36 133z" />
    <glyph glyph-name="otilde" unicode="&#xf5;" horiz-adv-x="803" 
d="M518 884h109c0 -80 -59 -138 -142 -138c-69 0 -104 60 -149 60c-27 0 -46 -18 -46 -44h-109c0 80 60 139 142 139c73 0 105 -61 149 -61c27 0 46 19 46 44zM38 350c0 211 162 364 363 364s364 -153 364 -364s-163 -364 -364 -364s-363 153 -363 364zM183 350
c0 -134 90 -227 218 -227c129 0 219 93 219 227c0 135 -90 227 -219 227c-128 0 -218 -92 -218 -227z" />
    <glyph glyph-name="p" unicode="p" horiz-adv-x="633" 
d="M83 700h250c168 0 270 -88 270 -234c0 -147 -102 -235 -270 -235h-111v-231h-139v700zM222 361h108c82 0 129 40 129 105c0 66 -49 104 -129 104h-108v-209z" />
    <glyph glyph-name="q" unicode="q" horiz-adv-x="803" 
d="M330 -132v125c-167 31 -292 172 -292 357c0 211 162 364 363 364s364 -153 364 -364c0 -187 -127 -328 -296 -358v-124h-139zM401 123c129 0 219 93 219 227c0 135 -90 227 -219 227c-128 0 -218 -92 -218 -227c0 -134 90 -227 218 -227z" />
    <glyph glyph-name="r" unicode="r" horiz-adv-x="666" 
d="M631 0h-156l-139 239h-8h-106v-239h-139v700h245c172 0 275 -93 275 -234c0 -96 -47 -166 -132 -201zM222 570v-207h124c77 0 113 50 113 103c0 55 -37 104 -113 104h-124z" />
    <glyph glyph-name="racute" unicode="&#x155;" horiz-adv-x="666" 
d="M489 834l-238 -103l-41 74l231 124zM631 0h-156l-139 239h-8h-106v-239h-139v700h245c172 0 275 -93 275 -234c0 -96 -47 -166 -132 -201zM222 570v-207h124c77 0 113 50 113 103c0 55 -37 104 -113 104h-124z" />
    <glyph glyph-name="rcaron" unicode="&#x159;" horiz-adv-x="666" 
d="M504 883l-186 -159l-187 159l68 69l119 -99l119 99zM631 0h-156l-139 239h-8h-106v-239h-139v700h245c172 0 275 -93 275 -234c0 -96 -47 -166 -132 -201zM222 570v-207h124c77 0 113 50 113 103c0 55 -37 104 -113 104h-124z" />
    <glyph glyph-name="rcommaaccent" unicode="&#x157;" horiz-adv-x="666" 
d="M471 265l160 -265h-156l-139 239h-8h-106v-239h-139v700h245c172 0 275 -93 275 -234c0 -96 -47 -166 -132 -201zM222 570v-207h124c77 0 113 50 113 103c0 55 -37 104 -113 104h-124zM343 -163l-12 2c-23 2 -50 23 -50 58c0 36 29 64 65 64c35 0 64 -29 64 -73
c0 -58 -44 -124 -95 -167h-49c31 22 65 80 65 112z" />
    <glyph glyph-name="s" unicode="s" horiz-adv-x="608" 
d="M571 524l-134 -37c-16 70 -77 106 -139 106c-64 0 -105 -31 -105 -73c0 -56 79 -76 167 -106c102 -35 219 -89 219 -214s-108 -214 -268 -214c-147 0 -248 83 -286 210l134 36c15 -63 71 -122 158 -122c75 0 114 37 114 84c0 71 -95 88 -194 123c-83 30 -187 73 -187 195
c0 109 108 202 256 202c131 0 235 -80 265 -190z" />
    <glyph glyph-name="sacute" unicode="&#x15b;" horiz-adv-x="608" 
d="M438 929l48 -95l-238 -103l-41 74zM571 524l-134 -37c-16 70 -77 106 -139 106c-64 0 -105 -31 -105 -73c0 -56 79 -76 167 -106c102 -35 219 -89 219 -214s-108 -214 -268 -214c-147 0 -248 83 -286 210l134 36c15 -63 71 -122 158 -122c75 0 114 37 114 84
c0 71 -95 88 -194 123c-83 30 -187 73 -187 195c0 109 108 202 256 202c131 0 235 -80 265 -190z" />
    <glyph glyph-name="scaron" unicode="&#x161;" horiz-adv-x="608" 
d="M136 883l187 -159l186 159l-67 69l-119 -99l-119 99zM571 524l-134 -37c-16 70 -77 106 -139 106c-64 0 -105 -31 -105 -73c0 -56 79 -76 167 -106c102 -35 219 -89 219 -214s-108 -214 -268 -214c-147 0 -248 83 -286 210l134 36c15 -63 71 -122 158 -122
c75 0 114 37 114 84c0 71 -95 88 -194 123c-83 30 -187 73 -187 195c0 109 108 202 256 202c131 0 235 -80 265 -190z" />
    <glyph glyph-name="scedilla" unicode="&#x15f;" horiz-adv-x="608" 
d="M571 524l-134 -37c-16 70 -77 106 -139 106c-64 0 -105 -31 -105 -73c0 -56 79 -76 167 -106c102 -35 219 -89 219 -214c0 -109 -82 -190 -209 -210l-16 -44c57 1 107 -38 107 -101c0 -75 -53 -106 -116 -106h-106l29 74h77c27 0 38 14 38 31c0 18 -15 30 -38 31h-92
l38 112c-136 7 -230 88 -266 209l134 36c15 -63 71 -122 158 -122c75 0 114 37 114 84c0 71 -95 88 -194 123c-83 30 -187 73 -187 195c0 109 108 202 256 202c131 0 235 -80 265 -190z" />
    <glyph glyph-name="scircumflex" unicode="&#x15d;" horiz-adv-x="608" 
d="M125 800l187 159l186 -159l-67 -69l-119 99l-119 -99zM571 524l-134 -37c-16 70 -77 106 -139 106c-64 0 -105 -31 -105 -73c0 -56 79 -76 167 -106c102 -35 219 -89 219 -214s-108 -214 -268 -214c-147 0 -248 83 -286 210l134 36c15 -63 71 -122 158 -122
c75 0 114 37 114 84c0 71 -95 88 -194 123c-83 30 -187 73 -187 195c0 109 108 202 256 202c131 0 235 -80 265 -190z" />
    <glyph glyph-name="scommaaccent" unicode="&#x219;" horiz-adv-x="608" 
d="M571 524l-134 -37c-16 70 -77 106 -139 106c-64 0 -105 -31 -105 -73c0 -56 79 -76 167 -106c102 -35 219 -89 219 -214s-108 -214 -268 -214c-147 0 -248 83 -286 210l134 36c15 -63 71 -122 158 -122c75 0 114 37 114 84c0 71 -95 88 -194 123c-83 30 -187 73 -187 195
c0 109 108 202 256 202c131 0 235 -80 265 -190zM285 -167l12 4l-12 2c-23 2 -50 23 -50 58c0 36 29 64 65 64c35 0 64 -29 64 -73c0 -58 -44 -124 -95 -167h-49c31 22 65 80 65 112z" />
    <glyph glyph-name="t" unicode="t" horiz-adv-x="605" 
d="M14 700h577v-130h-220v-570h-139v570h-218v130z" />
    <glyph glyph-name="tbar" unicode="&#x167;" horiz-adv-x="605" 
d="M591 570h-220v-150h109v-106h-109v-314h-139v314h-109v106h109v150h-218v130h577v-130z" />
    <glyph glyph-name="tcaron" unicode="&#x165;" horiz-adv-x="605" 
d="M502 883l-186 -159l-187 159l68 69l119 -99l119 99zM14 700h577v-130h-220v-570h-139v570h-218v130z" />
    <glyph glyph-name="tcedilla" unicode="&#x163;" horiz-adv-x="605" 
d="M371 0h-40l-20 -54c57 1 107 -38 107 -101c0 -75 -53 -106 -116 -106h-106l29 74h77c27 0 38 14 38 31c0 18 -15 30 -38 31h-92l43 125h-21v570h-218v130h577v-130h-220v-570z" />
    <glyph glyph-name="uni021B" unicode="&#x21b;" horiz-adv-x="605" 
d="M14 700h577v-130h-220v-570h-139v570h-218v130zM282 -163l-12 2c-23 2 -50 23 -50 58c0 36 29 64 65 64c35 0 64 -29 64 -73c0 -58 -44 -124 -95 -167h-49c31 22 65 80 65 112z" />
    <glyph glyph-name="thorn" unicode="&#xfe;" horiz-adv-x="636" 
d="M222 585h118c156 0 261 -98 261 -234s-105 -234 -261 -234h-118v-117h-139v700h139v-115zM222 247h121c71 0 113 43 113 104c0 60 -42 104 -113 103h-121v-207z" />
    <glyph glyph-name="u" unicode="u" horiz-adv-x="740" 
d="M532 700h140v-396c0 -206 -118 -318 -302 -318c-185 0 -302 112 -302 318v396h139v-394c0 -130 56 -190 163 -190c106 0 162 60 162 190v394z" />
    <glyph glyph-name="uacute" unicode="&#xfa;" horiz-adv-x="740" 
d="M486 929l48 -95l-238 -103l-41 74zM532 700h140v-396c0 -206 -118 -318 -302 -318c-185 0 -302 112 -302 318v396h139v-394c0 -130 56 -190 163 -190c106 0 162 60 162 190v394z" />
    <glyph glyph-name="ubreve" unicode="&#x16d;" horiz-adv-x="740" 
d="M191 888h102c8 -31 37 -59 79 -59c40 0 70 28 78 59h100c-19 -85 -91 -145 -178 -145c-93 0 -163 60 -181 145zM532 700h140v-396c0 -206 -118 -318 -302 -318c-185 0 -302 112 -302 318v396h139v-394c0 -130 56 -190 163 -190c106 0 162 60 162 190v394z" />
    <glyph glyph-name="ucircumflex" unicode="&#xfb;" horiz-adv-x="740" 
d="M181 800l187 159l186 -159l-67 -69l-119 99l-119 -99zM532 700h140v-396c0 -206 -118 -318 -302 -318c-185 0 -302 112 -302 318v396h139v-394c0 -130 56 -190 163 -190c106 0 162 60 162 190v394z" />
    <glyph glyph-name="udieresis" unicode="&#xfc;" horiz-adv-x="740" 
d="M239 767c-38 0 -67 28 -67 65c0 36 29 65 67 65c36 0 65 -29 65 -65c0 -37 -29 -65 -65 -65zM497 767c-37 0 -66 28 -66 65c0 36 29 65 66 65c36 0 65 -29 65 -65c0 -37 -29 -65 -65 -65zM532 700h140v-396c0 -206 -118 -318 -302 -318c-185 0 -302 112 -302 318v396h139
v-394c0 -130 56 -190 163 -190c106 0 162 60 162 190v394z" />
    <glyph glyph-name="ugrave" unicode="&#xf9;" horiz-adv-x="740" 
d="M425 731l-239 103l49 95l230 -124zM532 700h140v-396c0 -206 -118 -318 -302 -318c-185 0 -302 112 -302 318v396h139v-394c0 -130 56 -190 163 -190c106 0 162 60 162 190v394z" />
    <glyph glyph-name="uhungarumlaut" unicode="&#x171;" horiz-adv-x="740" 
d="M370 796l-152 -65l-40 74l231 124l40 -79l147 79l48 -95l-239 -103zM532 700h140v-396c0 -206 -118 -318 -302 -318c-185 0 -302 112 -302 318v396h139v-394c0 -130 56 -190 163 -190c106 0 162 60 162 190v394z" />
    <glyph glyph-name="umacron" unicode="&#x16b;" horiz-adv-x="740" 
d="M206 878h339v-108h-339v108zM532 700h140v-396c0 -206 -118 -318 -302 -318c-185 0 -302 112 -302 318v396h139v-394c0 -130 56 -190 163 -190c106 0 162 60 162 190v394z" />
    <glyph glyph-name="uogonek" unicode="&#x173;" horiz-adv-x="740" 
d="M672 700v-396c0 -163 -73 -267 -195 -303c-46 -19 -88 -44 -88 -95c0 -35 25 -64 68 -64c34 0 70 28 87 62l71 -47c-28 -58 -94 -102 -158 -102c-92 0 -165 55 -165 140c0 40 19 71 44 92c-165 14 -268 124 -268 317v396h139v-394c0 -130 56 -190 163 -190
c106 0 162 60 162 190v394h140z" />
    <glyph glyph-name="uring" unicode="&#x16f;" horiz-adv-x="740" 
d="M371 681c-75 0 -137 62 -137 137c0 74 62 136 137 136s137 -62 137 -136c0 -75 -62 -137 -137 -137zM371 764c31 0 56 25 56 54c0 32 -25 57 -56 57c-29 0 -55 -25 -55 -57c0 -29 26 -54 55 -54zM532 700h140v-396c0 -206 -118 -318 -302 -318c-185 0 -302 112 -302 318
v396h139v-394c0 -130 56 -190 163 -190c106 0 162 60 162 190v394z" />
    <glyph glyph-name="v" unicode="v" horiz-adv-x="719" 
d="M560 700h152l-279 -700h-148l-279 700h152l161 -424c24 -69 39 -121 40 -121h1c1 0 15 52 40 121z" />
    <glyph glyph-name="w" unicode="w" horiz-adv-x="1027" 
d="M858 700h147l-220 -700h-129l-108 338c-25 79 -33 124 -34 124h-1c-1 0 -8 -45 -33 -124l-108 -338h-130l-220 700h148l110 -378c17 -64 27 -109 28 -109h1c1 0 11 45 34 109l106 303h129l106 -303c23 -64 33 -109 34 -109h1c1 0 11 45 29 109z" />
    <glyph glyph-name="wacute" unicode="&#x1e83;" horiz-adv-x="1027" 
d="M622 929l48 -95l-238 -103l-41 74zM858 700h147l-220 -700h-129l-108 338c-25 79 -33 124 -34 124h-1c-1 0 -8 -45 -33 -124l-108 -338h-130l-220 700h148l110 -378c17 -64 27 -109 28 -109h1c1 0 11 45 34 109l106 303h129l106 -303c23 -64 33 -109 34 -109h1
c1 0 11 45 29 109z" />
    <glyph glyph-name="wcircumflex" unicode="&#x175;" horiz-adv-x="1027" 
d="M317 800l187 159l186 -159l-67 -69l-119 99l-119 -99zM858 700h147l-220 -700h-129l-108 338c-25 79 -33 124 -34 124h-1c-1 0 -8 -45 -33 -124l-108 -338h-130l-220 700h148l110 -378c17 -64 27 -109 28 -109h1c1 0 11 45 34 109l106 303h129l106 -303
c23 -64 33 -109 34 -109h1c1 0 11 45 29 109z" />
    <glyph glyph-name="wdieresis" unicode="&#x1e85;" horiz-adv-x="1027" 
d="M375 767c-38 0 -67 28 -67 65c0 36 29 65 67 65c36 0 65 -29 65 -65c0 -37 -29 -65 -65 -65zM633 767c-37 0 -66 28 -66 65c0 36 29 65 66 65c36 0 65 -29 65 -65c0 -37 -29 -65 -65 -65zM858 700h147l-220 -700h-129l-108 338c-25 79 -33 124 -34 124h-1
c-1 0 -8 -45 -33 -124l-108 -338h-130l-220 700h148l110 -378c17 -64 27 -109 28 -109h1c1 0 11 45 34 109l106 303h129l106 -303c23 -64 33 -109 34 -109h1c1 0 11 45 29 109z" />
    <glyph glyph-name="wgrave" unicode="&#x1e81;" horiz-adv-x="1027" 
d="M561 731l-239 103l49 95l230 -124zM858 700h147l-220 -700h-129l-108 338c-25 79 -33 124 -34 124h-1c-1 0 -8 -45 -33 -124l-108 -338h-130l-220 700h148l110 -378c17 -64 27 -109 28 -109h1c1 0 11 45 34 109l106 303h129l106 -303c23 -64 33 -109 34 -109h1
c1 0 11 45 29 109z" />
    <glyph glyph-name="x" unicode="x" horiz-adv-x="682" 
d="M342 242h-1c-1 0 -39 -65 -51 -83l-112 -159h-166l245 359l-231 341h167l108 -161c10 -16 39 -68 40 -68h1c1 0 29 52 39 68l108 161h168l-232 -341l245 -359h-166l-112 159c-12 18 -49 83 -50 83z" />
    <glyph glyph-name="y" unicode="y" horiz-adv-x="701" 
d="M532 700h157l-270 -379v-321h-138v321l-269 379h156l144 -201c19 -28 37 -52 38 -52h1c1 0 19 24 38 52z" />
    <glyph glyph-name="yacute" unicode="&#xfd;" horiz-adv-x="701" 
d="M466 929l48 -95l-238 -103l-41 74zM532 700h157l-270 -379v-321h-138v321l-269 379h156l144 -201c19 -28 37 -52 38 -52h1c1 0 19 24 38 52z" />
    <glyph glyph-name="ycircumflex" unicode="&#x177;" horiz-adv-x="701" 
d="M161 800l187 159l186 -159l-67 -69l-119 99l-119 -99zM532 700h157l-270 -379v-321h-138v321l-269 379h156l144 -201c19 -28 37 -52 38 -52h1c1 0 19 24 38 52z" />
    <glyph glyph-name="ydieresis" unicode="&#xff;" horiz-adv-x="701" 
d="M219 767c-38 0 -67 28 -67 65c0 36 29 65 67 65c36 0 65 -29 65 -65c0 -37 -29 -65 -65 -65zM477 767c-37 0 -66 28 -66 65c0 36 29 65 66 65c36 0 65 -29 65 -65c0 -37 -29 -65 -65 -65zM532 700h157l-270 -379v-321h-138v321l-269 379h156l144 -201
c19 -28 37 -52 38 -52h1c1 0 19 24 38 52z" />
    <glyph glyph-name="ygrave" unicode="&#x1ef3;" horiz-adv-x="701" 
d="M405 731l-239 103l49 95l230 -124zM532 700h157l-270 -379v-321h-138v321l-269 379h156l144 -201c19 -28 37 -52 38 -52h1c1 0 19 24 38 52z" />
    <glyph glyph-name="z" unicode="z" horiz-adv-x="705" 
d="M645 700v-130l-336 -378c-30 -33 -60 -63 -60 -64l1 -1c1 0 45 3 102 3h293v-130h-585v130l347 383c23 26 61 57 61 58l-1 1c-1 0 -57 -2 -103 -2h-294v130h575z" />
    <glyph glyph-name="zacute" unicode="&#x17a;" horiz-adv-x="705" 
d="M475 929l48 -95l-238 -103l-41 74zM645 700v-130l-336 -378c-30 -33 -60 -63 -60 -64l1 -1c1 0 45 3 102 3h293v-130h-585v130l347 383c23 26 61 57 61 58l-1 1c-1 0 -57 -2 -103 -2h-294v130h575z" />
    <glyph glyph-name="zcaron" unicode="&#x17e;" horiz-adv-x="705" 
d="M173 883l187 -159l186 159l-67 69l-119 -99l-119 99zM645 700v-130l-336 -378c-30 -33 -60 -63 -60 -64l1 -1c1 0 45 3 102 3h293v-130h-585v130l347 383c23 26 61 57 61 58l-1 1c-1 0 -57 -2 -103 -2h-294v130h575z" />
    <glyph glyph-name="zdotaccent" unicode="&#x17c;" horiz-adv-x="705" 
d="M360 766c-36 0 -66 29 -66 66c0 36 30 65 66 65s65 -29 65 -65c0 -37 -29 -66 -65 -66zM645 700v-130l-336 -378c-30 -33 -60 -63 -60 -64l1 -1c1 0 45 3 102 3h293v-130h-585v130l347 383c23 26 61 57 61 58l-1 1c-1 0 -57 -2 -103 -2h-294v130h575z" />
    <glyph glyph-name="Cacute.loclPLK" horiz-adv-x="756" 
d="M449 963l102 -57l-118 -177l-87 50zM719 529l-142 -37c-37 52 -107 85 -176 85c-131 0 -218 -94 -218 -227c0 -137 93 -225 218 -225c80 0 154 42 189 103l140 -37c-58 -124 -182 -205 -329 -205c-201 0 -363 153 -363 364s162 364 363 364c138 0 256 -73 318 -185z" />
    <glyph glyph-name="I.ss03" horiz-adv-x="491" 
d="M315 122h138v-122h-415v122h138v456h-134v122h407v-122h-134v-456z" />
    <glyph glyph-name="IJ.ss03" horiz-adv-x="1148" 
d="M315 578v-456h138v-122h-415v122h138v456h-134v122h407v-122h-134zM941 700h139v-396c0 -204 -122 -318 -308 -318c-133 0 -243 76 -284 179l137 37c26 -54 79 -86 147 -86c108 0 169 70 169 182v402z" />
    <glyph glyph-name="IJ.ss03.ss04" horiz-adv-x="1145" 
d="M315 578v-456h138v-122h-415v122h138v456h-134v122h407v-122h-134zM636 700h441v-396c0 -204 -122 -318 -308 -318c-133 0 -243 76 -284 179l137 37c26 -54 79 -86 147 -86c108 0 169 70 169 182v272h-302v130z" />
    <glyph glyph-name="IJ.ss04" horiz-adv-x="960" 
d="M83 0v700h139v-700h-139zM450 700h441v-396c0 -204 -122 -318 -308 -318c-133 0 -243 76 -284 179l137 37c26 -54 79 -86 147 -86c108 0 169 70 169 182v272h-302v130z" />
    <glyph glyph-name="Iacute.ss03" horiz-adv-x="491" 
d="M410 834l-238 -103l-41 74l231 124zM315 122h138v-122h-415v122h138v456h-134v122h407v-122h-134v-456z" />
    <glyph glyph-name="Icircumflex.ss03" horiz-adv-x="491" 
d="M244 830l-119 -99l-68 69l187 159l186 -159l-67 -69zM315 122h138v-122h-415v122h138v456h-134v122h407v-122h-134v-456z" />
    <glyph glyph-name="Idieresis.ss03" horiz-adv-x="491" 
d="M115 767c-38 0 -67 28 -67 65c0 36 29 65 67 65c36 0 65 -29 65 -65c0 -37 -29 -65 -65 -65zM373 767c-37 0 -66 28 -66 65c0 36 29 65 66 65c36 0 65 -29 65 -65c0 -37 -29 -65 -65 -65zM315 122h138v-122h-415v122h138v456h-134v122h407v-122h-134v-456z" />
    <glyph glyph-name="Idotaccent.ss03" horiz-adv-x="491" 
d="M247 766c-36 0 -66 29 -66 66c0 36 30 65 66 65s65 -29 65 -65c0 -37 -29 -66 -65 -66zM315 122h138v-122h-415v122h138v456h-134v122h407v-122h-134v-456z" />
    <glyph glyph-name="Igrave.ss03" horiz-adv-x="491" 
d="M341 805l-40 -74l-239 103l49 95zM315 122h138v-122h-415v122h138v456h-134v122h407v-122h-134v-456z" />
    <glyph glyph-name="Imacron.ss03" horiz-adv-x="491" 
d="M449 878v-108h-407v108h407zM315 122h138v-122h-415v122h138v456h-134v122h407v-122h-134v-456z" />
    <glyph glyph-name="Iogonek.ss03" horiz-adv-x="491" 
d="M453 0h-224c-53 0 -121 -26 -121 -90c0 -35 26 -68 75 -68c42 0 75 25 92 61l73 -46c-33 -65 -97 -102 -165 -102c-100 0 -173 58 -173 155c0 36 13 66 31 90h-3v122h138v456h-134v122h407v-122h-134v-456h138v-122z" />
    <glyph glyph-name="J.ss04" horiz-adv-x="671" 
d="M162 700h441v-396c0 -204 -122 -318 -308 -318c-133 0 -243 76 -284 179l137 37c26 -54 79 -86 147 -86c108 0 169 70 169 182v272h-302v130z" />
    <glyph glyph-name="Jcircumflex.ss04" horiz-adv-x="671" 
d="M371 830l-119 -99l-68 69l187 159l186 -159l-68 -69zM162 700h441v-396c0 -204 -122 -318 -308 -318c-133 0 -243 76 -284 179l137 37c26 -54 79 -86 147 -86c108 0 169 70 169 182v272h-302v130z" />
    <glyph glyph-name="N.ss02" horiz-adv-x="776" 
d="M554 700h139v-700h-139v240l-178 146c-75 63 -154 135 -155 135h-1c0 -1 2 -69 2 -154v-367h-139v700h131l152 -130c92 -81 188 -163 189 -163h1c0 1 -2 61 -2 146v147z" />
    <glyph glyph-name="Nacute.loclPLK" horiz-adv-x="776" 
d="M439 963l102 -57l-118 -177l-87 50zM554 700h139v-700h-131l-199 270c-63 86 -140 196 -141 196h-1c-1 0 1 -101 1 -240v-226h-139v700h131l203 -273c48 -63 136 -188 137 -188h1c1 0 -1 114 -1 232v229z" />
    <glyph glyph-name="Nacute.loclPLK.ss02" horiz-adv-x="776" 
d="M440 963l102 -57l-118 -177l-87 50zM554 700h139v-700h-139v240l-178 146c-75 63 -154 135 -155 135h-1c0 -1 2 -69 2 -154v-367h-139v700h131l152 -130c92 -81 188 -163 189 -163h1c0 1 -2 61 -2 146v147z" />
    <glyph glyph-name="Nacute.ss02" horiz-adv-x="776" 
d="M505 929l48 -95l-238 -103l-41 74zM554 700h139v-700h-139v240l-178 146c-75 63 -154 135 -155 135h-1c0 -1 2 -69 2 -154v-367h-139v700h131l152 -130c92 -81 188 -163 189 -163h1c0 1 -2 61 -2 146v147z" />
    <glyph glyph-name="Ncaron.ss02" horiz-adv-x="776" 
d="M203 883l187 -159l186 159l-67 69l-119 -99l-119 99zM554 700h139v-700h-139v240l-178 146c-75 63 -154 135 -155 135h-1c0 -1 2 -69 2 -154v-367h-139v700h131l152 -130c92 -81 188 -163 189 -163h1c0 1 -2 61 -2 146v147z" />
    <glyph glyph-name="Ncommaaccent.ss02" horiz-adv-x="776" 
d="M554 700h139v-700h-139v240l-178 146c-75 63 -154 135 -155 135h-1c0 -1 2 -69 2 -154v-367h-139v700h131l152 -130c92 -81 188 -163 189 -163h1c0 1 -2 61 -2 146v147zM379 -167l12 4l-12 2c-23 2 -50 23 -50 58c0 36 29 64 65 64c35 0 64 -29 64 -73
c0 -58 -44 -124 -95 -167h-49c31 22 65 80 65 112z" />
    <glyph glyph-name="Ntilde.ss02" horiz-adv-x="776" 
d="M504 884h109c0 -80 -59 -138 -142 -138c-69 0 -104 60 -149 60c-27 0 -46 -18 -46 -44h-109c0 80 60 139 142 139c73 0 105 -61 149 -61c27 0 46 19 46 44zM554 700h139v-700h-139v240l-178 146c-75 63 -154 135 -155 135h-1c0 -1 2 -69 2 -154v-367h-139v700h131
l152 -130c92 -81 188 -163 189 -163h1c0 1 -2 61 -2 146v147z" />
    <glyph glyph-name="Oacute.loclPLK" horiz-adv-x="803" 
d="M456 963l102 -57l-118 -177l-87 50zM38 350c0 211 162 364 363 364s364 -153 364 -364s-163 -364 -364 -364s-363 153 -363 364zM183 350c0 -134 90 -227 218 -227c129 0 219 93 219 227c0 135 -90 227 -219 227c-128 0 -218 -92 -218 -227z" />
    <glyph glyph-name="Q.ss01" horiz-adv-x="828" 
d="M752 137h42v-137h-394c-200 0 -362 149 -362 357c0 207 162 358 362 358s363 -151 363 -358c0 -93 -38 -173 -95 -226l1 -1c1 0 22 7 83 7zM183 357c0 -135 96 -220 217 -220c120 0 218 85 218 220c0 134 -98 220 -218 220c-121 0 -217 -86 -217 -220z" />
    <glyph glyph-name="Sacute.loclPLK" horiz-adv-x="608" 
d="M365 963l102 -57l-118 -177l-87 50zM571 524l-134 -37c-16 70 -77 106 -139 106c-64 0 -105 -31 -105 -73c0 -56 79 -76 167 -106c102 -35 219 -89 219 -214s-108 -214 -268 -214c-147 0 -248 83 -286 210l134 36c15 -63 71 -122 158 -122c75 0 114 37 114 84
c0 71 -95 88 -194 123c-83 30 -187 73 -187 195c0 109 108 202 256 202c131 0 235 -80 265 -190z" />
    <glyph glyph-name="Y.ss05" horiz-adv-x="701" 
d="M689 700l-242 -339h110v-114h-138v-247h-138v247h-135v114h107l-241 339h156l144 -201c19 -28 37 -52 38 -52h1c1 0 19 24 38 52l143 201h157z" />
    <glyph glyph-name="Yacute.ss05" horiz-adv-x="701" 
d="M513 834l-238 -103l-41 74l231 124zM689 700l-242 -339h110v-114h-138v-247h-138v247h-135v114h107l-241 339h156l144 -201c19 -28 37 -52 38 -52h1c1 0 19 24 38 52l143 201h157z" />
    <glyph glyph-name="Ycircumflex.ss05" horiz-adv-x="701" 
d="M347 830l-119 -99l-68 69l187 159l186 -159l-67 -69zM689 700l-242 -339h110v-114h-138v-247h-138v247h-135v114h107l-241 339h156l144 -201c19 -28 37 -52 38 -52h1c1 0 19 24 38 52l143 201h157z" />
    <glyph glyph-name="Ydieresis.ss05" horiz-adv-x="701" 
d="M218 767c-38 0 -67 28 -67 65c0 36 29 65 67 65c36 0 65 -29 65 -65c0 -37 -29 -65 -65 -65zM476 767c-37 0 -66 28 -66 65c0 36 29 65 66 65c36 0 65 -29 65 -65c0 -37 -29 -65 -65 -65zM689 700l-242 -339h110v-114h-138v-247h-138v247h-135v114h107l-241 339h156
l144 -201c19 -28 37 -52 38 -52h1c1 0 19 24 38 52l143 201h157z" />
    <glyph glyph-name="Ygrave.ss05" horiz-adv-x="701" 
d="M444 805l-40 -74l-239 103l49 95zM689 700l-242 -339h110v-114h-138v-247h-138v247h-135v114h107l-241 339h156l144 -201c19 -28 37 -52 38 -52h1c1 0 19 24 38 52l143 201h157z" />
    <glyph glyph-name="Zacute.loclPLK" horiz-adv-x="705" 
d="M410 963l102 -57l-118 -177l-87 50zM645 700v-130l-336 -378c-30 -33 -60 -63 -60 -64l1 -1c1 0 45 3 102 3h293v-130h-585v130l347 383c23 26 61 57 61 58l-1 1c-1 0 -57 -2 -103 -2h-294v130h575z" />
    <glyph glyph-name="cacute.loclPLK" horiz-adv-x="756" 
d="M449 963l102 -57l-118 -177l-87 50zM719 529l-142 -37c-37 52 -107 85 -176 85c-131 0 -218 -94 -218 -227c0 -137 93 -225 218 -225c80 0 154 42 189 103l140 -37c-58 -124 -182 -205 -329 -205c-201 0 -363 153 -363 364s162 364 363 364c138 0 256 -73 318 -185z" />
    <glyph glyph-name="dotlessj.ss04" horiz-adv-x="671" 
d="M162 700h441v-396c0 -204 -122 -318 -308 -318c-133 0 -243 76 -284 179l137 37c26 -54 79 -86 147 -86c108 0 169 70 169 182v272h-302v130z" />
    <glyph glyph-name="i.ss03" horiz-adv-x="491" 
d="M315 122h138v-122h-415v122h138v456h-134v122h407v-122h-134v-456z" />
    <glyph glyph-name="iacute.ss03" horiz-adv-x="491" 
d="M410 834l-238 -103l-41 74l231 124zM315 122h138v-122h-415v122h138v456h-134v122h407v-122h-134v-456z" />
    <glyph glyph-name="icircumflex.ss03" horiz-adv-x="491" 
d="M244 830l-119 -99l-68 69l187 159l186 -159l-67 -69zM315 122h138v-122h-415v122h138v456h-134v122h407v-122h-134v-456z" />
    <glyph glyph-name="idieresis.ss03" horiz-adv-x="491" 
d="M115 767c-38 0 -67 28 -67 65c0 36 29 65 67 65c36 0 65 -29 65 -65c0 -37 -29 -65 -65 -65zM373 767c-37 0 -66 28 -66 65c0 36 29 65 66 65c36 0 65 -29 65 -65c0 -37 -29 -65 -65 -65zM315 122h138v-122h-415v122h138v456h-134v122h407v-122h-134v-456z" />
    <glyph glyph-name="idotaccent.ss03" horiz-adv-x="491" 
d="M247 766c-36 0 -66 29 -66 66c0 36 30 65 66 65s65 -29 65 -65c0 -37 -29 -66 -65 -66zM315 122h138v-122h-415v122h138v456h-134v122h407v-122h-134v-456z" />
    <glyph glyph-name="igrave.ss03" horiz-adv-x="491" 
d="M341 805l-40 -74l-239 103l49 95zM315 122h138v-122h-415v122h138v456h-134v122h407v-122h-134v-456z" />
    <glyph glyph-name="ij.ss03" horiz-adv-x="1148" 
d="M315 578v-456h138v-122h-415v122h138v456h-134v122h407v-122h-134zM941 700h139v-396c0 -204 -122 -318 -308 -318c-133 0 -243 76 -284 179l137 37c26 -54 79 -86 147 -86c108 0 169 70 169 182v402z" />
    <glyph glyph-name="ij.ss03.ss04" horiz-adv-x="1145" 
d="M315 578v-456h138v-122h-415v122h138v456h-134v122h407v-122h-134zM636 700h441v-396c0 -204 -122 -318 -308 -318c-133 0 -243 76 -284 179l137 37c26 -54 79 -86 147 -86c108 0 169 70 169 182v272h-302v130z" />
    <glyph glyph-name="ij.ss04" horiz-adv-x="960" 
d="M83 0v700h139v-700h-139zM450 700h441v-396c0 -204 -122 -318 -308 -318c-133 0 -243 76 -284 179l137 37c26 -54 79 -86 147 -86c108 0 169 70 169 182v272h-302v130z" />
    <glyph glyph-name="imacron.ss03" horiz-adv-x="491" 
d="M449 878v-108h-407v108h407zM315 122h138v-122h-415v122h138v456h-134v122h407v-122h-134v-456z" />
    <glyph glyph-name="iogonek.ss03" horiz-adv-x="491" 
d="M453 0h-224c-53 0 -121 -26 -121 -90c0 -35 26 -68 75 -68c42 0 75 25 92 61l73 -46c-33 -65 -97 -102 -165 -102c-100 0 -173 58 -173 155c0 36 13 66 31 90h-3v122h138v456h-134v122h407v-122h-134v-456h138v-122z" />
    <glyph glyph-name="j.ss04" horiz-adv-x="671" 
d="M162 700h441v-396c0 -204 -122 -318 -308 -318c-133 0 -243 76 -284 179l137 37c26 -54 79 -86 147 -86c108 0 169 70 169 182v272h-302v130z" />
    <glyph glyph-name="jcircumflex.ss04" horiz-adv-x="671" 
d="M371 830l-119 -99l-68 69l187 159l186 -159l-67 -69zM162 700h441v-396c0 -204 -122 -318 -308 -318c-133 0 -243 76 -284 179l137 37c26 -54 79 -86 147 -86c108 0 169 70 169 182v272h-302v130z" />
    <glyph glyph-name="n.ss02" horiz-adv-x="776" 
d="M554 700h139v-700h-139v240l-178 146c-75 63 -154 135 -155 135h-1c0 -1 2 -69 2 -154v-367h-139v700h131l152 -130c92 -81 188 -163 189 -163h1c0 1 -2 61 -2 146v147z" />
    <glyph glyph-name="nacute.loclPLK" horiz-adv-x="776" 
d="M439 963l102 -57l-118 -177l-87 50zM554 700h139v-700h-131l-199 270c-63 86 -140 196 -141 196h-1c-1 0 1 -101 1 -240v-226h-139v700h131l203 -273c48 -63 136 -188 137 -188h1c1 0 -1 114 -1 232v229z" />
    <glyph glyph-name="nacute.loclPLK.ss02" horiz-adv-x="776" 
d="M440 963l102 -57l-118 -177l-87 50zM554 700h139v-700h-139v240l-178 146c-75 63 -154 135 -155 135h-1c0 -1 2 -69 2 -154v-367h-139v700h131l152 -130c92 -81 188 -163 189 -163h1c0 1 -2 61 -2 146v147z" />
    <glyph glyph-name="nacute.ss02" horiz-adv-x="776" 
d="M505 929l48 -95l-238 -103l-41 74zM554 700h139v-700h-139v240l-178 146c-75 63 -154 135 -155 135h-1c0 -1 2 -69 2 -154v-367h-139v700h131l152 -130c92 -81 188 -163 189 -163h1c0 1 -2 61 -2 146v147z" />
    <glyph glyph-name="ncaron.ss02" horiz-adv-x="776" 
d="M203 883l187 -159l186 159l-67 69l-119 -99l-119 99zM554 700h139v-700h-139v240l-178 146c-75 63 -154 135 -155 135h-1c0 -1 2 -69 2 -154v-367h-139v700h131l152 -130c92 -81 188 -163 189 -163h1c0 1 -2 61 -2 146v147z" />
    <glyph glyph-name="ncommaaccent.ss02" horiz-adv-x="776" 
d="M554 700h139v-700h-139v240l-178 146c-75 63 -154 135 -155 135h-1c0 -1 2 -69 2 -154v-367h-139v700h131l152 -130c92 -81 188 -163 189 -163h1c0 1 -2 61 -2 146v147zM379 -167l12 4l-12 2c-23 2 -50 23 -50 58c0 36 29 64 65 64c35 0 64 -29 64 -73
c0 -58 -44 -124 -95 -167h-49c31 22 65 80 65 112z" />
    <glyph glyph-name="ntilde.ss02" horiz-adv-x="776" 
d="M504 884h109c0 -80 -59 -138 -142 -138c-69 0 -104 60 -149 60c-27 0 -46 -18 -46 -44h-109c0 80 60 139 142 139c73 0 105 -61 149 -61c27 0 46 19 46 44zM554 700h139v-700h-139v240l-178 146c-75 63 -154 135 -155 135h-1c0 -1 2 -69 2 -154v-367h-139v700h131
l152 -130c92 -81 188 -163 189 -163h1c0 1 -2 61 -2 146v147z" />
    <glyph glyph-name="oacute.loclPLK" horiz-adv-x="803" 
d="M456 963l102 -57l-118 -177l-87 50zM38 350c0 211 162 364 363 364s364 -153 364 -364s-163 -364 -364 -364s-363 153 -363 364zM183 350c0 -134 90 -227 218 -227c129 0 219 93 219 227c0 135 -90 227 -219 227c-128 0 -218 -92 -218 -227z" />
    <glyph glyph-name="q.ss01" horiz-adv-x="828" 
d="M752 137h42v-137h-394c-200 0 -362 149 -362 357c0 207 162 358 362 358s363 -151 363 -358c0 -93 -38 -173 -95 -226l1 -1c1 0 22 7 83 7zM183 357c0 -135 96 -220 217 -220c120 0 218 85 218 220c0 134 -98 220 -218 220c-121 0 -217 -86 -217 -220z" />
    <glyph glyph-name="sacute.loclPLK" horiz-adv-x="608" 
d="M365 963l102 -57l-118 -177l-87 50zM571 524l-134 -37c-16 70 -77 106 -139 106c-64 0 -105 -31 -105 -73c0 -56 79 -76 167 -106c102 -35 219 -89 219 -214s-108 -214 -268 -214c-147 0 -248 83 -286 210l134 36c15 -63 71 -122 158 -122c75 0 114 37 114 84
c0 71 -95 88 -194 123c-83 30 -187 73 -187 195c0 109 108 202 256 202c131 0 235 -80 265 -190z" />
    <glyph glyph-name="y.ss05" horiz-adv-x="701" 
d="M689 700l-242 -339h110v-114h-138v-247h-138v247h-135v114h107l-241 339h156l144 -201c19 -28 37 -52 38 -52h1c1 0 19 24 38 52l143 201h157z" />
    <glyph glyph-name="yacute.ss05" horiz-adv-x="701" 
d="M513 834l-238 -103l-41 74l231 124zM689 700l-242 -339h110v-114h-138v-247h-138v247h-135v114h107l-241 339h156l144 -201c19 -28 37 -52 38 -52h1c1 0 19 24 38 52l143 201h157z" />
    <glyph glyph-name="ycircumflex.ss05" horiz-adv-x="701" 
d="M347 830l-119 -99l-68 69l187 159l186 -159l-67 -69zM689 700l-242 -339h110v-114h-138v-247h-138v247h-135v114h107l-241 339h156l144 -201c19 -28 37 -52 38 -52h1c1 0 19 24 38 52l143 201h157z" />
    <glyph glyph-name="ydieresis.ss05" horiz-adv-x="701" 
d="M218 767c-38 0 -67 28 -67 65c0 36 29 65 67 65c36 0 65 -29 65 -65c0 -37 -29 -65 -65 -65zM476 767c-37 0 -66 28 -66 65c0 36 29 65 66 65c36 0 65 -29 65 -65c0 -37 -29 -65 -65 -65zM689 700l-242 -339h110v-114h-138v-247h-138v247h-135v114h107l-241 339h156
l144 -201c19 -28 37 -52 38 -52h1c1 0 19 24 38 52l143 201h157z" />
    <glyph glyph-name="ygrave.ss05" horiz-adv-x="701" 
d="M444 805l-40 -74l-239 103l49 95zM689 700l-242 -339h110v-114h-138v-247h-138v247h-135v114h107l-241 339h156l144 -201c19 -28 37 -52 38 -52h1c1 0 19 24 38 52l143 201h157z" />
    <glyph glyph-name="zacute.loclPLK" horiz-adv-x="705" 
d="M410 963l102 -57l-118 -177l-87 50zM645 700v-130l-336 -378c-30 -33 -60 -63 -60 -64l1 -1c1 0 45 3 102 3h293v-130h-585v130l347 383c23 26 61 57 61 58l-1 1c-1 0 -57 -2 -103 -2h-294v130h575z" />
    <glyph glyph-name="ordfeminine" unicode="&#xaa;" horiz-adv-x="363" 
d="M126 436l-20 -61h-85l121 333h78l122 -333h-87l-19 61h-110zM182 628h-1c-1 0 -7 -40 -20 -84l-14 -44h68l-14 44c-14 44 -18 84 -19 84zM20 312h323v-85h-323v85z" />
    <glyph glyph-name="ordmasculine" unicode="&#xba;" horiz-adv-x="364" 
d="M10 540c0 100 76 173 172 173c95 0 172 -73 172 -173c0 -99 -77 -172 -172 -172c-96 0 -172 73 -172 172zM95 540c0 -52 37 -90 87 -90s87 38 87 90c0 53 -37 91 -87 91s-87 -38 -87 -91zM20 312h324v-85h-324v85z" />
    <glyph glyph-name="zero" unicode="0" horiz-adv-x="717" 
d="M358 714c201 0 321 -165 321 -364s-120 -364 -321 -364s-320 165 -320 364s119 364 320 364zM358 577c-121 0 -175 -101 -175 -227s54 -227 175 -227c120 0 177 101 177 227s-57 227 -177 227z" />
    <glyph glyph-name="one" unicode="1" horiz-adv-x="450" 
d="M270 700h97v-700h-139v383c0 49 4 113 3 113h-1c-1 0 -30 -35 -56 -61l-50 -50l-86 83z" />
    <glyph glyph-name="two" unicode="2" horiz-adv-x="599" 
d="M178 488l-128 34c34 115 127 192 261 192c148 0 249 -97 249 -225c0 -135 -95 -198 -180 -259c-66 -49 -142 -102 -142 -103l1 -1c1 0 62 4 160 4h161v-130h-505v114c100 86 199 172 298 258c40 34 66 75 66 117c0 56 -44 102 -112 102c-74 0 -113 -53 -129 -103z" />
    <glyph glyph-name="three" unicode="3" horiz-adv-x="608" 
d="M175 487l-125 34c30 118 127 193 261 193c162 0 248 -92 248 -201c0 -93 -80 -148 -140 -150v-1c77 -1 151 -57 151 -156c0 -130 -108 -220 -258 -220c-133 0 -248 82 -274 196l126 35c16 -63 68 -106 142 -106c70 0 120 41 120 102c0 58 -49 92 -124 92h-60v110h60
c75 0 113 34 113 89c0 46 -38 87 -112 87c-66 0 -106 -34 -128 -104z" />
    <glyph glyph-name="four" unicode="4" horiz-adv-x="648" 
d="M609 264v-121h-82v-143h-131v143h-358v103l376 454h113v-436h82zM291 264h105v85c0 75 3 160 3 161h-1c-1 0 -39 -53 -70 -91l-86 -101c-32 -39 -46 -53 -46 -54v-1c6 0 50 1 95 1z" />
    <glyph glyph-name="five" unicode="5" horiz-adv-x="609" 
d="M209 428l1 -1c15 14 53 31 103 31c146 0 257 -96 257 -231c0 -138 -110 -241 -257 -241c-141 0 -239 85 -263 182l127 34c14 -48 53 -96 131 -96c70 0 121 52 121 123c0 72 -54 122 -121 122c-75 0 -102 -36 -113 -62l-120 33l62 378h390v-130h-288l-8 -43
c-14 -70 -22 -97 -22 -99z" />
    <glyph glyph-name="six" unicode="6" horiz-adv-x="601" 
d="M453 700l-199 -263l1 -1c15 15 36 32 84 32c149 0 239 -112 239 -244c0 -141 -116 -238 -271 -238c-149 0 -269 94 -269 246c0 104 46 179 116 273l148 195h151zM312 108c79 0 133 52 133 124c1 73 -54 122 -133 122c-80 0 -133 -51 -133 -122c0 -74 55 -124 133 -124z
" />
    <glyph glyph-name="seven" unicode="7" horiz-adv-x="569" 
d="M31 700h524v-81l-347 -619h-149l240 423c41 73 91 147 91 148l-1 1c-1 0 -60 -2 -98 -2h-260v130z" />
    <glyph glyph-name="eight" unicode="8" horiz-adv-x="607" 
d="M421 373v-1c71 -14 148 -77 148 -175c0 -121 -110 -211 -265 -212c-155 1 -266 91 -266 212c0 99 78 162 148 175v1c-38 6 -116 62 -116 154c0 105 97 187 234 187c136 0 234 -82 234 -187c0 -92 -79 -148 -117 -154zM188 520c0 -52 49 -88 116 -88c68 0 115 38 115 88
c0 55 -49 93 -115 93c-69 0 -116 -39 -116 -93zM171 201c0 -64 54 -106 133 -106c81 0 133 44 133 106c0 63 -55 104 -133 104c-81 0 -133 -43 -133 -104z" />
    <glyph glyph-name="nine" unicode="9" horiz-adv-x="604" 
d="M121 0l228 262l-1 1c-18 -21 -50 -31 -82 -31c-161 0 -243 110 -243 242c0 147 117 240 272 240c149 0 271 -90 271 -246c0 -83 -32 -171 -124 -278l-162 -190h-159zM292 591c-76 0 -134 -46 -134 -124s60 -122 134 -122c78 0 134 49 134 122c0 80 -59 124 -134 124z" />
    <glyph glyph-name="onequarter" unicode="&#xbc;" horiz-adv-x="721" 
d="M97 546l-29 -28l-57 51l143 131h64v-388h-91v196c0 34 6 76 6 77h-1c-2 0 -13 -20 -35 -39zM556 700h92l-494 -700h-91zM697 150v-75h-44v-75h-81v75h-194v62l206 251h69v-238h44zM520 149h52v65c0 26 2 52 2 53h-1c-1 0 -15 -22 -30 -38l-47 -55
c-15 -16 -27 -26 -27 -27l1 -1c1 0 24 3 50 3z" />
    <glyph glyph-name="onehalf" unicode="&#xbd;" horiz-adv-x="754" 
d="M154 700h64v-388h-91v196c0 34 6 76 6 77h-1c-2 0 -13 -20 -35 -39l-29 -28l-57 51zM63 0l493 700h92l-494 -700h-91zM558 73l1 -1c2 0 47 7 104 7h65v-79h-286v60l135 113c35 30 64 55 64 91c0 28 -23 49 -54 49c-45 0 -60 -36 -69 -64l-80 21c15 66 71 126 151 126
c81 0 141 -58 141 -132c0 -50 -30 -88 -63 -116c-17 -14 -35 -28 -54 -42c-29 -20 -55 -32 -55 -33z" />
    <glyph glyph-name="threequarters" unicode="&#xbe;" horiz-adv-x="786" 
d="M233 512v-1c43 -2 87 -29 87 -83c0 -73 -62 -124 -145 -124c-76 0 -143 48 -155 115l78 21c6 -37 31 -59 77 -59c37 0 59 21 59 49c0 30 -26 49 -62 49h-37v64h37c32 0 56 21 56 46c0 22 -20 43 -54 43c-38 0 -60 -16 -71 -58l-77 21c15 68 71 113 148 113
c90 0 140 -51 140 -113c0 -52 -46 -82 -81 -83zM621 700h92l-494 -700h-92zM762 150v-75h-44v-75h-81v75h-194v62l206 251h69v-238h44zM585 149h52v65c0 26 2 52 2 53h-1c-1 0 -15 -22 -30 -38l-47 -55c-15 -16 -27 -26 -27 -27l1 -1c1 0 24 3 50 3z" />
    <glyph glyph-name="fraction" unicode="&#x2044;" horiz-adv-x="125" 
d="M-230 0l494 700h91l-493 -700h-92z" />
    <glyph glyph-name="oneeighth" unicode="&#x215b;" horiz-adv-x="743" 
d="M154 700h64v-388h-91v196c0 34 6 76 6 77h-1c-2 0 -13 -20 -35 -39l-29 -28l-57 51zM63 0l494 700h91l-493 -700h-92zM653 206v-1c35 -9 79 -41 79 -96c0 -67 -62 -116 -148 -117c-85 1 -147 50 -147 117c0 55 44 87 79 96v1c-22 6 -61 36 -61 87c0 59 54 103 129 103
c76 0 130 -44 130 -103c0 -51 -41 -81 -61 -87zM526 291c0 -27 25 -46 58 -45c35 0 59 19 59 45s-25 44 -59 44c-33 0 -58 -19 -58 -44zM517 111c0 -32 28 -54 67 -54c40 0 68 23 68 54c0 30 -29 52 -68 52s-67 -23 -67 -52z" />
    <glyph glyph-name="threeeighths" unicode="&#x215c;" horiz-adv-x="808" 
d="M103 574l-77 21c15 68 71 113 148 113c90 0 140 -51 140 -113c0 -52 -46 -82 -81 -83v-1c43 -2 87 -29 87 -83c0 -73 -62 -124 -145 -124c-76 0 -143 48 -155 115l78 21c6 -37 31 -59 77 -59c37 0 59 21 59 49c0 30 -26 49 -62 49h-37v64h37c32 0 56 21 56 46
c0 22 -20 43 -54 43c-38 0 -60 -16 -71 -58zM128 0l494 700h91l-493 -700h-92zM718 206v-1c35 -9 79 -41 79 -96c0 -67 -62 -116 -148 -117c-85 1 -147 50 -147 117c0 55 44 87 79 96v1c-22 6 -61 36 -61 87c0 59 54 103 129 103c76 0 130 -44 130 -103
c0 -51 -41 -81 -61 -87zM591 291c0 -27 25 -46 58 -45c35 0 59 19 59 45s-25 44 -59 44c-33 0 -58 -19 -58 -44zM582 111c0 -32 28 -54 67 -54c40 0 68 23 68 54c0 30 -29 52 -68 52s-67 -23 -67 -52z" />
    <glyph glyph-name="fiveeighths" unicode="&#x215d;" horiz-adv-x="787" 
d="M111 549l1 -1c9 10 25 22 56 22c89 0 145 -52 145 -130s-63 -136 -145 -136c-83 0 -139 53 -148 111l80 22c6 -31 26 -56 65 -56s65 25 65 60c0 37 -26 62 -65 62c-29 0 -49 -14 -59 -34l-74 20l36 211h222v-79h-157l-4 -17c-7 -31 -18 -54 -18 -55zM601 700h91
l-493 -700h-92zM697 206v-1c35 -9 79 -41 79 -96c0 -67 -62 -116 -148 -117c-85 1 -147 50 -147 117c0 55 44 87 79 96v1c-22 6 -61 36 -61 87c0 59 54 103 129 103c76 0 130 -44 130 -103c0 -51 -41 -81 -61 -87zM628 335c-33 0 -58 -19 -58 -44c0 -27 25 -46 58 -45
c35 0 59 19 59 45s-25 44 -59 44zM628 57c40 0 68 23 68 54c0 30 -29 52 -68 52s-67 -23 -67 -52c0 -32 28 -54 67 -54z" />
    <glyph glyph-name="seveneighths" unicode="&#x215e;" horiz-adv-x="689" 
d="M9 0l494 700h91l-493 -700h-92zM10 700h294v-50l-187 -338h-89l138 249c22 41 42 60 42 61l-1 1c-1 0 -33 -2 -71 -2h-126v79zM599 206v-1c35 -9 79 -41 79 -96c0 -67 -62 -116 -148 -117c-85 1 -147 50 -147 117c0 55 44 87 79 96v1c-22 6 -61 36 -61 87
c0 59 54 103 129 103c76 0 130 -44 130 -103c0 -51 -41 -81 -61 -87zM472 291c0 -27 25 -46 58 -45c35 0 59 19 59 45s-25 44 -59 44c-33 0 -58 -19 -58 -44zM463 111c0 -32 28 -54 67 -54c40 0 68 23 68 54c0 30 -29 52 -68 52s-67 -23 -67 -52z" />
    <glyph glyph-name="twosuperior" unicode="&#xb2;" horiz-adv-x="336" 
d="M140 547l1 -1c2 0 47 7 104 7h65v-79h-286v60l135 113c35 30 64 55 64 91c0 28 -23 49 -54 49c-45 0 -60 -36 -69 -64l-80 21c15 66 71 126 151 126c81 0 141 -58 141 -132c0 -50 -30 -88 -63 -116c-17 -14 -35 -28 -54 -42c-29 -20 -55 -32 -55 -33z" />
    <glyph glyph-name="threesuperior" unicode="&#xb3;" horiz-adv-x="344" 
d="M103 736l-77 21c15 68 71 113 148 113c90 0 140 -51 140 -113c0 -52 -46 -82 -81 -83v-1c43 -2 87 -29 87 -83c0 -73 -62 -124 -145 -124c-76 0 -143 48 -155 115l78 21c6 -37 31 -59 77 -59c37 0 59 21 59 49c0 30 -26 49 -62 49h-37v64h37c32 0 56 21 56 46
c0 22 -20 43 -54 43c-38 0 -60 -16 -71 -58z" />
    <glyph glyph-name="onesuperior" unicode="&#xb9;" horiz-adv-x="251" 
d="M154 862h64v-388h-91v196c0 34 6 76 6 77h-1c-2 0 -13 -20 -35 -39l-29 -28l-57 51z" />
    <glyph glyph-name="zero.slsh" horiz-adv-x="717" 
d="M358 714c201 0 321 -165 321 -364s-120 -364 -321 -364s-320 165 -320 364s119 364 320 364zM219 198l221 359c-23 13 -50 20 -82 20c-121 0 -175 -101 -175 -227c0 -59 12 -112 36 -152zM498 501l-220 -359c22 -12 49 -19 80 -19c120 0 177 101 177 227
c0 58 -12 111 -37 151z" />
    <glyph glyph-name="zero.sups" horiz-adv-x="379" 
d="M190 466c-107 0 -179 86 -179 201s72 203 179 203s178 -88 178 -203s-71 -201 -178 -201zM190 559c52 0 85 50 85 108c0 60 -33 109 -85 109s-85 -49 -85 -109c0 -58 33 -108 85 -108z" />
    <glyph glyph-name="four.sups" horiz-adv-x="353" 
d="M329 624v-75h-44v-75h-81v75h-194v62l206 251h69v-238h44zM152 623h52v65c0 26 2 52 2 53h-1c-1 0 -15 -22 -30 -38l-47 -55c-15 -16 -27 -26 -27 -27l1 -1c1 0 24 3 50 3z" />
    <glyph glyph-name="five.sups" horiz-adv-x="337" 
d="M111 711l1 -1c9 10 25 22 56 22c89 0 145 -52 145 -130s-63 -136 -145 -136c-83 0 -139 53 -148 111l80 22c6 -31 26 -56 65 -56s65 25 65 60c0 37 -26 62 -65 62c-29 0 -49 -14 -59 -34l-74 20l36 211h222v-79h-157l-4 -17c-7 -31 -18 -54 -18 -55z" />
    <glyph glyph-name="six.sups" horiz-adv-x="336" 
d="M248 862l-110 -145l1 -1c5 6 18 17 38 17c81 0 135 -60 135 -133c0 -81 -64 -134 -149 -134c-82 0 -152 53 -152 137c0 57 23 99 61 150l83 109h93zM162 542c39 0 65 24 65 61c1 36 -26 60 -65 60c-40 0 -66 -24 -66 -60c0 -37 26 -61 66 -61z" />
    <glyph glyph-name="seven.sups" horiz-adv-x="309" 
d="M10 862h294v-50l-187 -338h-89l138 249c22 41 42 60 42 61l-1 1c-1 0 -33 -2 -71 -2h-126v79z" />
    <glyph glyph-name="eight.sups" horiz-adv-x="317" 
d="M227 680v-1c35 -9 79 -41 79 -96c0 -67 -62 -116 -148 -117c-85 1 -147 50 -147 117c0 55 44 87 79 96v1c-22 6 -61 36 -61 87c0 59 54 103 129 103c76 0 130 -44 130 -103c0 -51 -41 -81 -61 -87zM100 765c0 -27 25 -46 58 -45c35 0 59 19 59 45s-25 44 -59 44
c-33 0 -58 -19 -58 -44zM91 585c0 -32 28 -54 67 -54c40 0 68 23 68 54c0 30 -29 52 -68 52s-67 -23 -67 -52z" />
    <glyph glyph-name="nine.sups" horiz-adv-x="323" 
d="M62 474l124 143l-1 1c-8 -9 -25 -15 -39 -15c-81 0 -135 60 -135 133c0 81 64 134 149 134c82 0 152 -53 152 -137c0 -60 -26 -107 -67 -157l-85 -102h-98zM159 795c-39 0 -65 -25 -66 -61c0 -37 26 -61 66 -61s66 24 66 61c0 36 -26 61 -66 61z" />
    <glyph glyph-name="zero.tf" 
d="M348 714c201 0 291 -185 291 -364s-90 -364 -291 -364s-290 185 -290 364s89 364 290 364zM348 577c-121 0 -145 -137 -145 -227s24 -227 145 -227c120 0 147 137 147 227s-27 227 -147 227z" />
    <glyph glyph-name="one.tf" 
d="M458 130h166v-130h-474v130h168v253c0 49 4 113 3 113h-1c-1 0 -29 -35 -56 -61l-50 -50l-86 83l232 232h98v-570z" />
    <glyph glyph-name="two.tf" 
d="M211 488l-128 34c34 115 127 192 261 192c148 0 249 -97 249 -225c0 -135 -95 -198 -180 -259c-66 -49 -142 -102 -142 -103l1 -1c1 0 62 4 160 4h161v-130h-505v114c100 86 199 172 298 258c40 34 66 75 66 117c0 56 -44 102 -112 102c-74 0 -113 -53 -129 -103z" />
    <glyph glyph-name="three.tf" 
d="M218 487l-125 34c30 118 127 193 261 193c162 0 248 -92 248 -201c0 -93 -80 -148 -140 -150v-1c77 -1 151 -57 151 -156c0 -130 -108 -220 -258 -220c-133 0 -248 82 -274 196l126 35c16 -63 68 -106 142 -106c70 0 120 41 120 102c0 58 -49 92 -124 92h-60v110h60
c75 0 113 34 113 89c0 46 -38 87 -112 87c-66 0 -106 -34 -128 -104z" />
    <glyph glyph-name="four.tf" 
d="M629 264v-121h-82v-143h-131v143h-358v103l376 454h113v-436h82zM311 264h105v85c0 75 3 160 3 161h-1c-1 0 -39 -53 -70 -91l-86 -101c-32 -39 -46 -53 -46 -54v-1c6 0 50 1 95 1z" />
    <glyph glyph-name="five.tf" 
d="M241 428l1 -1c15 14 53 31 103 31c146 0 257 -96 257 -231c0 -138 -110 -241 -257 -241c-141 0 -239 85 -263 182l127 34c14 -48 53 -96 131 -96c70 0 121 52 121 123c0 72 -54 122 -121 122c-75 0 -102 -36 -113 -62l-120 33l62 378h390v-130h-288l-8 -43
c-14 -70 -22 -97 -22 -99z" />
    <glyph glyph-name="six.tf" 
d="M493 700l-199 -263l1 -1c15 15 36 32 84 32c149 0 239 -112 239 -244c0 -141 -116 -238 -271 -238c-149 0 -269 94 -269 246c0 104 46 179 116 273l148 195h151zM352 108c79 0 133 52 133 124c1 73 -54 122 -133 122c-80 0 -133 -51 -133 -122c0 -74 55 -124 133 -124z
" />
    <glyph glyph-name="seven.tf" 
d="M110 700h524v-81l-347 -619h-149l240 423c41 73 91 147 91 148l-1 1c-1 0 -60 -2 -98 -2h-260v130z" />
    <glyph glyph-name="eight.tf" 
d="M466 373v-1c71 -14 148 -77 148 -175c0 -121 -110 -211 -265 -212c-155 1 -266 91 -266 212c0 99 78 162 148 175v1c-38 6 -116 62 -116 154c0 105 97 187 234 187c136 0 234 -82 234 -187c0 -92 -79 -148 -117 -154zM233 520c0 -52 49 -88 116 -88c68 0 115 38 115 88
c0 55 -49 93 -115 93c-69 0 -116 -39 -116 -93zM216 201c0 -64 54 -106 133 -106c81 0 133 44 133 106c0 63 -55 104 -133 104c-81 0 -133 -43 -133 -104z" />
    <glyph glyph-name="nine.tf" 
d="M152 0l228 262l-1 1c-18 -21 -50 -31 -82 -31c-161 0 -243 110 -243 242c0 147 117 240 272 240c149 0 271 -90 271 -246c0 -83 -32 -171 -124 -278l-162 -190h-159zM323 591c-76 0 -134 -46 -134 -124s60 -122 134 -122c78 0 134 49 134 122c0 80 -59 124 -134 124z" />
    <glyph glyph-name="zero.slsh.tf" 
d="M348 714c201 0 291 -185 291 -364s-90 -364 -291 -364s-290 185 -290 364s89 364 290 364zM224 216l205 333c-21 17 -47 28 -81 28c-121 0 -145 -137 -145 -227c0 -41 5 -91 21 -134zM476 474l-202 -328c19 -14 44 -23 74 -23c120 0 147 137 147 227c0 38 -5 84 -19 124z
" />
    <glyph glyph-name="zero.slsh.numr" horiz-adv-x="378" 
d="M190 708c107 0 178 -88 178 -203s-71 -201 -178 -201s-179 86 -179 201s72 203 179 203zM121 440l103 166c-10 5 -22 8 -34 8c-52 0 -85 -49 -85 -109c0 -24 6 -47 16 -65zM260 569l-102 -165c10 -5 20 -7 32 -7c52 0 85 50 85 108c0 24 -5 46 -15 64z" />
    <glyph glyph-name="zero.slsh.dnom" horiz-adv-x="378" 
d="M190 395c107 0 178 -88 178 -203s-71 -201 -178 -201s-179 86 -179 201s72 203 179 203zM121 127l103 166c-10 5 -22 8 -34 8c-52 0 -85 -49 -85 -109c0 -24 6 -47 16 -65zM260 256l-102 -165c10 -5 20 -7 32 -7c52 0 85 50 85 108c0 24 -5 46 -15 64z" />
    <glyph glyph-name="zero.slsh.sups" horiz-adv-x="378" 
d="M190 870c107 0 178 -88 178 -203s-71 -201 -178 -201s-179 86 -179 201s72 203 179 203zM121 602l103 166c-10 5 -22 8 -34 8c-52 0 -85 -49 -85 -109c0 -24 6 -47 16 -65zM260 731l-102 -165c10 -5 20 -7 32 -7c52 0 85 50 85 108c0 24 -5 46 -15 64z" />
    <glyph glyph-name="zero.dnom" horiz-adv-x="379" 
d="M190 -8c-107 0 -179 87 -179 202s72 202 179 202s178 -87 178 -202s-71 -202 -178 -202zM190 86c52 0 85 49 85 108s-33 109 -85 109s-85 -50 -85 -109s33 -108 85 -108z" />
    <glyph glyph-name="one.dnom" horiz-adv-x="251" 
d="M154 388h64v-388h-91v196c0 35 6 76 6 77h-1c-2 0 -13 -19 -35 -39l-29 -27l-57 50z" />
    <glyph glyph-name="two.dnom" horiz-adv-x="336" 
d="M140 73l1 -1c2 0 47 7 104 7h65v-79h-286v60l135 113c35 30 64 56 64 91c0 28 -23 49 -54 49c-45 0 -60 -36 -69 -64l-80 21c15 66 71 126 151 126c81 0 141 -58 141 -132c0 -50 -30 -87 -63 -116c-17 -14 -35 -28 -54 -42c-29 -20 -55 -32 -55 -33z" />
    <glyph glyph-name="three.dnom" horiz-adv-x="331" 
d="M103 262l-77 21c15 68 71 113 148 113c90 0 140 -51 140 -113c0 -52 -46 -82 -81 -83v-1c43 -1 87 -29 87 -83c0 -72 -62 -124 -145 -124c-76 0 -143 48 -155 115l78 22c6 -38 31 -60 77 -60c37 0 59 22 59 49c0 30 -26 49 -62 49h-37v64h37c32 0 56 21 56 47
c0 21 -20 42 -54 42c-38 0 -60 -16 -71 -58z" />
    <glyph glyph-name="four.dnom" horiz-adv-x="353" 
d="M329 151v-76h-44v-75h-81v75h-194v62l206 251h69v-237h44zM152 149h52v66c0 26 2 51 2 52h-1c-1 0 -15 -21 -30 -37l-47 -55c-15 -17 -27 -27 -27 -28l1 -1c1 0 24 3 50 3z" />
    <glyph glyph-name="five.dnom" horiz-adv-x="337" 
d="M111 237l1 -1c9 10 25 23 56 23c89 0 145 -53 145 -131s-63 -136 -145 -136c-83 0 -139 53 -148 111l80 22c6 -31 26 -56 65 -56s65 25 65 60c0 37 -26 62 -65 62c-29 0 -49 -13 -59 -34l-74 20l36 211h222v-79h-157l-4 -17c-7 -31 -18 -54 -18 -55z" />
    <glyph glyph-name="six.dnom" horiz-adv-x="336" 
d="M248 388l-110 -144l1 -1c5 6 18 16 38 16c81 0 135 -60 135 -133c0 -81 -64 -134 -149 -134c-82 0 -152 53 -152 137c0 57 23 99 61 150l83 109h93zM162 68c39 0 65 24 65 61c1 37 -26 61 -65 61c-40 0 -66 -24 -66 -61s26 -61 66 -61z" />
    <glyph glyph-name="seven.dnom" horiz-adv-x="309" 
d="M10 388h294v-50l-187 -338h-89l138 249c22 41 42 61 42 62l-1 1c-1 0 -33 -3 -71 -3h-126v79z" />
    <glyph glyph-name="eight.dnom" horiz-adv-x="317" 
d="M227 206v-1c35 -9 79 -40 79 -96c0 -67 -62 -116 -148 -117c-85 1 -147 50 -147 117c0 56 44 87 79 96v1c-22 6 -61 37 -61 87c0 59 54 103 129 103c76 0 130 -44 130 -103c0 -50 -41 -81 -61 -87zM100 291c0 -27 25 -45 58 -45c35 0 59 19 59 45s-25 44 -59 44
c-33 0 -58 -19 -58 -44zM91 111c0 -32 28 -54 67 -54c40 0 68 23 68 54c0 30 -29 53 -68 53s-67 -24 -67 -53z" />
    <glyph glyph-name="nine.dnom" horiz-adv-x="323" 
d="M62 0l124 143l-1 1c-8 -8 -25 -15 -39 -15c-81 0 -135 60 -135 133c0 81 64 134 149 134c82 0 152 -53 152 -137c0 -59 -26 -107 -67 -157l-85 -102h-98zM159 321c-39 0 -65 -24 -66 -61c0 -37 26 -61 66 -61s66 24 66 61s-26 61 -66 61z" />
    <glyph glyph-name="zero.numr" horiz-adv-x="379" 
d="M190 304c-107 0 -179 86 -179 201s72 203 179 203s178 -88 178 -203s-71 -201 -178 -201zM190 397c52 0 85 50 85 108c0 60 -33 109 -85 109s-85 -49 -85 -109c0 -58 33 -108 85 -108z" />
    <glyph glyph-name="one.numr" horiz-adv-x="251" 
d="M154 700h64v-388h-91v196c0 34 6 76 6 77h-1c-2 0 -13 -20 -35 -39l-29 -28l-57 51z" />
    <glyph glyph-name="two.numr" horiz-adv-x="336" 
d="M140 385l1 -1c2 0 47 7 104 7h65v-79h-286v60l135 113c35 30 64 55 64 91c0 28 -23 49 -54 49c-45 0 -60 -36 -69 -64l-80 21c15 66 71 126 151 126c81 0 141 -58 141 -132c0 -50 -30 -88 -63 -116c-17 -14 -35 -28 -54 -42c-29 -20 -55 -32 -55 -33z" />
    <glyph glyph-name="three.numr" horiz-adv-x="344" 
d="M103 574l-77 21c15 68 71 113 148 113c90 0 140 -51 140 -113c0 -52 -46 -82 -81 -83v-1c43 -2 87 -29 87 -83c0 -73 -62 -124 -145 -124c-76 0 -143 48 -155 115l78 21c6 -37 31 -59 77 -59c37 0 59 21 59 49c0 30 -26 49 -62 49h-37v64h37c32 0 56 21 56 46
c0 22 -20 43 -54 43c-38 0 -60 -16 -71 -58z" />
    <glyph glyph-name="four.numr" horiz-adv-x="353" 
d="M329 462v-75h-44v-75h-81v75h-194v62l206 251h69v-238h44zM152 461h52v65c0 26 2 52 2 53h-1c-1 0 -15 -22 -30 -38l-47 -55c-15 -16 -27 -26 -27 -27l1 -1c1 0 24 3 50 3z" />
    <glyph glyph-name="five.numr" horiz-adv-x="337" 
d="M111 549l1 -1c9 10 25 22 56 22c89 0 145 -52 145 -130s-63 -136 -145 -136c-83 0 -139 53 -148 111l80 22c6 -31 26 -56 65 -56s65 25 65 60c0 37 -26 62 -65 62c-29 0 -49 -14 -59 -34l-74 20l36 211h222v-79h-157l-4 -17c-7 -31 -18 -54 -18 -55z" />
    <glyph glyph-name="six.numr" horiz-adv-x="336" 
d="M248 700l-110 -145l1 -1c5 6 18 17 38 17c81 0 135 -60 135 -133c0 -81 -64 -134 -149 -134c-82 0 -152 53 -152 137c0 57 23 99 61 150l83 109h93zM162 380c39 0 65 24 65 61c1 36 -26 60 -65 60c-40 0 -66 -24 -66 -60c0 -37 26 -61 66 -61z" />
    <glyph glyph-name="seven.numr" horiz-adv-x="309" 
d="M10 700h294v-50l-187 -338h-89l138 249c22 41 42 60 42 61l-1 1c-1 0 -33 -2 -71 -2h-126v79z" />
    <glyph glyph-name="eight.numr" horiz-adv-x="317" 
d="M227 518v-1c35 -9 79 -41 79 -96c0 -67 -62 -116 -148 -117c-85 1 -147 50 -147 117c0 55 44 87 79 96v1c-22 6 -61 36 -61 87c0 59 54 103 129 103c76 0 130 -44 130 -103c0 -51 -41 -81 -61 -87zM100 603c0 -27 25 -46 58 -45c35 0 59 19 59 45s-25 44 -59 44
c-33 0 -58 -19 -58 -44zM91 423c0 -32 28 -54 67 -54c40 0 68 23 68 54c0 30 -29 52 -68 52s-67 -23 -67 -52z" />
    <glyph glyph-name="nine.numr" horiz-adv-x="323" 
d="M62 312l124 143l-1 1c-8 -9 -25 -15 -39 -15c-81 0 -135 60 -135 133c0 81 64 134 149 134c82 0 152 -53 152 -137c0 -60 -26 -107 -67 -157l-85 -102h-98zM159 633c-39 0 -65 -25 -66 -61c0 -37 26 -61 66 -61s66 24 66 61c0 36 -26 61 -66 61z" />
    <glyph glyph-name="dollar.tf" 
d="M613 524l-134 -37c-16 70 -77 106 -139 106c-64 0 -105 -31 -105 -73c0 -56 79 -76 167 -106c102 -35 219 -89 219 -214c0 -106 -77 -186 -198 -208v-82h-139v83c-110 22 -185 97 -217 203l134 36c15 -63 71 -122 158 -122c75 0 114 37 114 84c0 71 -95 88 -194 123
c-83 30 -187 73 -187 195c0 93 78 174 192 196v82h139v-85c95 -24 166 -93 190 -181z" />
    <glyph glyph-name="percent.tf" 
d="M559 700l-152 -324c24 13 52 20 82 20c107 0 178 -87 178 -202s-71 -202 -178 -202c-100 0 -169 75 -178 179l-80 -171h-92l155 329c-26 -16 -57 -25 -92 -25c-107 0 -179 86 -179 201s72 203 179 203c105 0 175 -84 178 -195l88 187h91zM202 397c52 0 85 50 85 108
c0 60 -33 109 -85 109s-85 -49 -85 -109c0 -58 33 -108 85 -108zM489 86c52 0 85 49 85 108s-33 109 -85 109s-85 -50 -85 -109s33 -108 85 -108z" />
    <glyph glyph-name="cent.tf" 
d="M485 276l121 -34c-32 -81 -105 -140 -193 -158v-98h-112v99c-118 26 -208 129 -208 262c0 132 90 235 208 261v106h112v-105c83 -17 151 -71 186 -144l-121 -32c-27 39 -66 61 -119 61c-84 0 -138 -56 -138 -147s54 -148 138 -148c59 0 102 28 126 77z" />
    <glyph glyph-name="sterling.tf" 
d="M428 130h192v-130h-529v130c64 13 76 52 68 129l-3 29h-63v110h53l-8 90c-12 123 97 223 224 226c87 2 220 -45 256 -194l-117 -33c-23 70 -67 107 -131 104c-63 -3 -99 -55 -93 -116l7 -77h204v-110h-193l2 -25c7 -73 -10 -116 -40 -136l1 -1c1 0 74 4 170 4z" />
    <glyph glyph-name="currency.tf" 
d="M502 560l69 69l69 -69l-70 -69c31 -43 49 -96 49 -152c0 -57 -18 -110 -49 -153l69 -69l-69 -69l-69 69c-43 -30 -97 -49 -154 -49c-56 0 -108 18 -151 49l-68 -69l-69 69l68 68c-30 44 -48 97 -48 154s18 110 48 153l-69 68l69 69l69 -69c43 31 95 49 151 49
c58 0 111 -18 155 -49zM348 488c-79 0 -144 -62 -144 -147c0 -87 65 -147 144 -147c81 0 147 60 147 147c0 85 -66 147 -147 147z" />
    <glyph glyph-name="yen.tf" 
d="M687 700l-173 -243h105v-91h-170l-23 -33h193v-92h-202v-241h-138v241h-198v92h189l-23 33h-166v91h101l-172 243h156l144 -201c19 -28 37 -52 38 -52h1c1 0 19 24 38 52l143 201h157z" />
    <glyph glyph-name="Euro.tf" 
d="M545 226l132 -34c-52 -124 -162 -204 -310 -204c-153 0 -279 98 -319 253h-48v92h35v17v17h-34v91h47c40 155 165 254 319 254c140 0 243 -72 299 -184l-135 -34c-34 58 -97 91 -168 91c-75 0 -144 -39 -175 -127h196v-91h-212v-17v-17h211v-92h-194
c30 -86 99 -124 174 -124c78 0 150 40 182 109z" />
    <glyph glyph-name="uni20B9.tf" 
d="M602 594h-123c12 -15 20 -32 27 -50h96v-103h-86c-12 -101 -83 -172 -188 -195l184 -246h-160l-179 243v103h85c59 0 100 42 111 95h-246v103h229c-20 31 -54 50 -94 50h-135v106h479v-106z" />
    <glyph glyph-name="asterisk" unicode="*" horiz-adv-x="513" 
d="M403 624l27 -84l-105 -30l67 -89l-72 -53l-64 93l-62 -93l-73 53l67 89l-105 30l27 84l102 -34v110h87v-110z" />
    <glyph glyph-name="backslash" unicode="\" horiz-adv-x="503" 
d="M497 0l-358 700h-133l347 -700h144z" />
    <glyph glyph-name="bullet" unicode="&#x2022;" horiz-adv-x="401" 
d="M201 237c-66 0 -118 52 -118 118c0 64 52 117 118 117c64 0 116 -53 116 -117c0 -66 -52 -118 -116 -118z" />
    <glyph glyph-name="colon" unicode=":" horiz-adv-x="258" 
d="M129 285c-38 0 -69 30 -69 69c0 38 31 68 69 68s69 -31 69 -68c0 -39 -31 -69 -69 -69zM129 -12c-38 0 -69 30 -69 69c0 38 31 68 69 68s69 -31 69 -68c0 -39 -31 -69 -69 -69z" />
    <glyph glyph-name="comma" unicode="," horiz-adv-x="258" 
d="M113 -11l13 4l-13 2c-25 2 -53 25 -53 63s31 68 70 68c38 0 68 -31 68 -78c0 -63 -47 -134 -102 -180h-52c33 23 69 86 69 121z" />
    <glyph glyph-name="ellipsis" unicode="&#x2026;" horiz-adv-x="764" 
d="M117 -13c-32 0 -57 25 -57 57c0 31 26 56 57 56s57 -25 57 -56c0 -32 -26 -57 -57 -57zM377 -13c-32 0 -57 25 -57 57c0 31 26 56 57 56s57 -25 57 -56c0 -32 -26 -57 -57 -57zM647 -13c-32 0 -57 25 -57 57c0 31 26 56 57 56s57 -25 57 -56c0 -32 -26 -57 -57 -57z" />
    <glyph glyph-name="exclam" unicode="!" horiz-adv-x="305" 
d="M83 219v481h139v-481h-139zM83 0v157h139v-157h-139z" />
    <glyph glyph-name="exclamdown" unicode="&#xa1;" horiz-adv-x="305" 
d="M83 700h139v-157h-139v157zM83 481h139v-481h-139v481z" />
    <glyph glyph-name="numbersign" unicode="#" horiz-adv-x="908" 
d="M815 431h-107l-81 -163h107l-63 -120h-103l-73 -148h-145l76 148h-160l-73 -148h-144l76 148h-97l63 120h95l83 163h-97l64 121h95l76 148h133l-73 -148h165l76 148h133l-73 -148h110zM487 268l83 163h-163l-81 -163h161z" />
    <glyph glyph-name="period" unicode="." horiz-adv-x="258" 
d="M129 -12c-38 0 -69 30 -69 69c0 38 31 68 69 68s69 -31 69 -68c0 -39 -31 -69 -69 -69z" />
    <glyph glyph-name="periodcentered" unicode="&#xb7;" horiz-adv-x="258" 
d="M129 285c-38 0 -69 30 -69 69c0 38 31 68 69 68s69 -31 69 -68c0 -39 -31 -69 -69 -69z" />
    <glyph glyph-name="question" unicode="?" horiz-adv-x="584" 
d="M215 219v121c138 75 187 105 187 162c0 37 -25 89 -107 89c-77 0 -117 -33 -140 -104l-117 33c29 119 128 194 262 194c162 0 247 -92 247 -203c0 -121 -95 -171 -192 -222v-70h-140zM215 0v157h140v-157h-140z" />
    <glyph glyph-name="questiondown" unicode="&#xbf;" horiz-adv-x="584" 
d="M369 700v-157h-140v157h140zM369 481v-121c-138 -75 -187 -105 -187 -162c0 -37 25 -89 107 -89c77 0 117 33 140 104l117 -33c-29 -119 -128 -194 -262 -194c-162 0 -247 92 -247 203c0 121 95 171 192 222v70h140z" />
    <glyph glyph-name="quotedbl" unicode="&#x22;" horiz-adv-x="547" 
d="M83 483v217h131v-217h-131zM333 483v217h131v-217h-131z" />
    <glyph glyph-name="quotesingle" unicode="'" horiz-adv-x="297" 
d="M83 483v217h131v-217h-131z" />
    <glyph glyph-name="semicolon" unicode=";" horiz-adv-x="275" 
d="M145 285c-38 0 -69 30 -69 69c0 38 31 68 69 68s69 -31 69 -68c0 -39 -31 -69 -69 -69zM129 -12l13 4l-13 2c-25 2 -53 25 -53 63s31 68 70 68c38 0 68 -31 68 -78c0 -63 -47 -134 -102 -180h-52c33 23 69 86 69 121z" />
    <glyph glyph-name="slash" unicode="/" horiz-adv-x="503" 
d="M6 0l358 700h133l-346 -700h-145z" />
    <glyph glyph-name="underscore" unicode="_" horiz-adv-x="776" 
d="M83 0h610v-110h-610v110z" />
    <glyph glyph-name="braceleft" unicode="{" horiz-adv-x="433" 
d="M287 591v-79c0 -134 -48 -159 -54 -160c6 -1 54 -27 54 -161v-78c0 -132 67 -152 134 -152v-130c-178 0 -273 101 -273 261v106c0 135 -65 154 -65 154s65 19 65 154v106c0 160 95 261 273 261v-130c-67 0 -134 -20 -134 -152z" />
    <glyph glyph-name="braceright" unicode="}" horiz-adv-x="433" 
d="M146 591v-79c0 -134 48 -159 54 -160c-6 -1 -54 -27 -54 -161v-78c0 -132 -67 -152 -134 -152v-130c178 0 273 101 273 261v106c0 135 65 154 65 154s-65 19 -65 154v106c0 160 -95 261 -273 261v-130c67 0 134 -20 134 -152z" />
    <glyph glyph-name="bracketleft" unicode="[" horiz-adv-x="373" 
d="M223 726v-747h134v-131h-274v1008h274v-130h-134z" />
    <glyph glyph-name="bracketright" unicode="]" horiz-adv-x="376" 
d="M153 726v-747h-134v-131h274v1008h-274v-130h134z" />
    <glyph glyph-name="parenleft" unicode="(" horiz-adv-x="383" 
d="M324 831l36 -132c-133 -42 -183 -158 -183 -355c0 -196 50 -313 183 -355l-36 -131c-108 36 -286 135 -286 486c0 352 178 451 286 487z" />
    <glyph glyph-name="parenright" unicode=")" horiz-adv-x="383" 
d="M59 831l-36 -132c133 -42 183 -158 183 -355c0 -196 -50 -313 -183 -355l36 -131c108 36 286 135 286 486c0 352 -178 451 -286 487z" />
    <glyph glyph-name="emdash" unicode="&#x2014;" horiz-adv-x="1031" 
d="M83 420h865v-131h-865v131z" />
    <glyph glyph-name="endash" unicode="&#x2013;" horiz-adv-x="591" 
d="M83 420h425v-131h-425v131z" />
    <glyph glyph-name="hyphen" unicode="-" horiz-adv-x="622" 
d="M83 412h456v-114h-456v114z" />
    <glyph glyph-name="softhyphen" unicode="&#xad;" horiz-adv-x="622" 
d="M83 412h456v-114h-456v114z" />
    <glyph glyph-name="guillemotleft" unicode="&#xab;" horiz-adv-x="779" 
d="M319 586l-236 -234l235 -235l77 77l-165 158l164 158zM620 586l-236 -234l235 -235l77 77l-165 158l164 158z" />
    <glyph glyph-name="guillemotright" unicode="&#xbb;" horiz-adv-x="779" 
d="M159 586l236 -234l-235 -235l-77 77l165 158l-164 158zM460 586l236 -234l-235 -235l-77 77l165 158l-164 158z" />
    <glyph glyph-name="guilsinglleft" unicode="&#x2039;" horiz-adv-x="478" 
d="M319 586l-236 -234l235 -235l77 77l-164 158l163 158z" />
    <glyph glyph-name="guilsinglright" unicode="&#x203a;" horiz-adv-x="478" 
d="M159 586l236 -234l-235 -235l-77 77l165 158l-164 158z" />
    <glyph glyph-name="quotedblbase" unicode="&#x201e;" horiz-adv-x="531" 
d="M153 -11l13 4l-13 2c-25 3 -54 25 -54 63s31 68 70 68c38 0 69 -31 69 -78c0 -63 -47 -134 -102 -180h-53c33 24 70 86 70 121zM363 -11l13 4l-13 2c-25 3 -54 25 -54 63s31 68 70 68c38 0 69 -31 69 -78c0 -63 -47 -134 -102 -180h-53c33 24 70 86 70 121z" />
    <glyph glyph-name="quotedblleft" unicode="&#x201c;" horiz-adv-x="535" 
d="M168 591l-13 -4l13 -1c25 -3 54 -25 54 -63c0 -39 -32 -69 -70 -69s-69 32 -69 79c0 62 47 134 102 179h53c-33 -23 -70 -86 -70 -121zM383 591l-14 -4l14 -1c24 -3 53 -25 53 -63c0 -39 -31 -69 -70 -69c-38 0 -68 32 -68 79c0 62 47 134 102 179h52
c-33 -23 -69 -86 -69 -121z" />
    <glyph glyph-name="quotedblright" unicode="&#x201d;" horiz-adv-x="535" 
d="M153 575l13 4l-13 2c-25 3 -54 25 -54 63s31 68 70 68c38 0 69 -31 69 -78c0 -62 -47 -134 -102 -180h-53c33 24 70 86 70 121zM367 575l13 4l-13 2c-25 3 -53 25 -53 63s31 68 70 68c37 0 68 -31 68 -78c0 -62 -47 -134 -102 -180h-52c33 24 69 86 69 121z" />
    <glyph glyph-name="quoteleft" unicode="&#x2018;" horiz-adv-x="321" 
d="M168 591l-13 -4l13 -1c25 -3 54 -25 54 -63c0 -39 -32 -69 -70 -69s-69 32 -69 79c0 62 47 134 102 179h53c-33 -23 -70 -86 -70 -121z" />
    <glyph glyph-name="quoteright" unicode="&#x2019;" horiz-adv-x="321" 
d="M153 575l13 4l-13 2c-25 3 -54 25 -54 63s31 68 70 68c38 0 69 -31 69 -78c0 -62 -47 -134 -102 -180h-53c33 24 70 86 70 121z" />
    <glyph glyph-name="quotesinglbase" unicode="&#x201a;" horiz-adv-x="321" 
d="M153 -11l13 4l-13 2c-25 3 -54 25 -54 63s31 68 70 68c38 0 69 -31 69 -78c0 -62 -47 -134 -102 -180h-53c33 24 70 86 70 121z" />
    <glyph glyph-name="colon.case" horiz-adv-x="258" 
d="M129 424c-38 0 -69 30 -69 69c0 38 31 68 69 68s69 -31 69 -68c0 -39 -31 -69 -69 -69zM129 127c-38 0 -69 30 -69 69c0 38 31 68 69 68s69 -31 69 -68c0 -39 -31 -69 -69 -69z" />
    <glyph glyph-name="semicolon.case" horiz-adv-x="275" 
d="M145 422c-38 0 -69 30 -69 69c0 38 31 68 69 68s69 -31 69 -68c0 -39 -31 -69 -69 -69zM129 125l13 4l-13 2c-25 2 -53 25 -53 63s31 68 70 68c38 0 68 -31 68 -78c0 -63 -47 -134 -102 -180h-52c33 23 69 86 69 121z" />
    <glyph glyph-name="uni2007" unicode="&#x2007;" 
 />
    <glyph glyph-name="uni200A" unicode="&#x200a;" horiz-adv-x="40" 
 />
    <glyph glyph-name="space" unicode=" " horiz-adv-x="250" 
 />
    <glyph glyph-name="uni2009" unicode="&#x2009;" horiz-adv-x="120" 
 />
    <glyph glyph-name="Euro" unicode="&#x20ac;" horiz-adv-x="802" 
d="M637 227l139 -35c-57 -124 -182 -204 -328 -204c-163 0 -301 101 -346 253h-64v92h49v17v17h-48v91h63c45 152 182 254 346 254c137 0 255 -72 316 -184l-141 -35c-37 52 -101 84 -174 84c-87 0 -163 -46 -200 -119h210v-91h-235c-1 -6 -1 -11 -1 -17s0 -11 1 -17h235
v-92h-209c38 -71 113 -116 199 -116c81 0 152 40 188 102z" />
    <glyph glyph-name="cent" unicode="&#xa2;" horiz-adv-x="577" 
d="M430 276l121 -34c-32 -81 -105 -140 -193 -158v-98h-112v99c-118 26 -208 129 -208 262c0 132 90 235 208 261v106h112v-105c82 -17 151 -71 186 -144l-122 -32c-26 39 -65 61 -118 61c-84 0 -138 -56 -138 -147s54 -148 138 -148c59 0 102 28 126 77z" />
    <glyph glyph-name="currency" unicode="&#xa4;" horiz-adv-x="665" 
d="M485 560l70 69l68 -69l-69 -69c30 -43 48 -96 48 -152c0 -57 -18 -110 -48 -153l68 -69l-69 -69l-69 69c-43 -30 -96 -49 -153 -49s-108 18 -151 49l-69 -69l-68 69l67 68c-30 44 -48 97 -48 154s18 110 48 153l-69 68l69 69l69 -69c43 31 95 49 152 49s110 -18 154 -49z
M332 488c-80 0 -145 -62 -145 -147c0 -87 65 -147 145 -147c81 0 146 60 146 147c0 85 -65 147 -146 147z" />
    <glyph glyph-name="dollar" unicode="$" horiz-adv-x="608" 
d="M571 524l-134 -37c-16 70 -77 106 -139 106c-64 0 -105 -31 -105 -73c0 -56 79 -76 167 -106c102 -35 219 -89 219 -214c0 -106 -78 -186 -199 -208v-82h-139v83c-109 22 -184 97 -216 203l134 36c15 -63 71 -122 158 -122c75 0 114 37 114 84c0 71 -95 88 -194 123
c-83 30 -187 73 -187 195c0 92 77 173 191 196v82h139v-85c95 -24 167 -93 191 -181z" />
    <glyph glyph-name="uni20B9" unicode="&#x20b9;" horiz-adv-x="596" 
d="M561 594h-122c11 -15 20 -32 26 -50h96v-103h-86c-12 -101 -82 -173 -188 -195l185 -246h-160l-179 243v103h85c58 0 99 42 111 95h-246v103h229c-20 31 -54 50 -94 50h-135v106h478v-106z" />
    <glyph glyph-name="sterling" unicode="&#xa3;" horiz-adv-x="652" 
d="M420 130h192v-130h-529v130c64 13 76 52 68 129l-3 29h-63v110h53l-8 90c-12 123 98 223 224 226c87 2 220 -45 257 -194l-118 -33c-22 70 -67 107 -131 104c-63 -3 -99 -55 -93 -116l7 -77h204v-110h-193l2 -25c7 -73 -10 -116 -39 -136l1 -1c1 0 73 4 169 4z" />
    <glyph glyph-name="yen" unicode="&#xa5;" horiz-adv-x="700" 
d="M689 700l-173 -243h104v-91h-169l-23 -33h192v-92h-201v-241h-138v241h-198v92h189l-23 33h-166v91h101l-172 243h156l144 -201c19 -28 37 -52 38 -52h1c1 0 19 24 38 52l143 201h157z" />
    <glyph glyph-name="asciitilde" unicode="~" 
d="M514 426l116 -31c-13 -96 -95 -134 -163 -134c-90 0 -152 66 -206 66c-53 0 -67 -34 -68 -61l-115 30c14 97 96 134 164 134c89 0 152 -66 205 -66c52 0 67 35 67 62z" />
    <glyph glyph-name="divide" unicode="&#xf7;" 
d="M343 511c-38 0 -69 30 -69 69c0 38 31 68 69 68s69 -31 69 -68c0 -39 -31 -69 -69 -69zM120 412h457v-114h-457v114zM343 63c-38 0 -69 30 -69 69c0 38 31 68 69 68s69 -31 69 -68c0 -39 -31 -69 -69 -69z" />
    <glyph glyph-name="equal" unicode="=" 
d="M121 515h457v-114h-457v114zM121 293h457v-114h-457v114z" />
    <glyph glyph-name="greater" unicode="&#x3e;" 
d="M126 122l283 245l-283 244h162l295 -244l-295 -245h-162z" />
    <glyph glyph-name="greaterequal" unicode="&#x2265;" 
d="M186 180l223 187l-283 244h162l295 -244l-231 -187h-166zM123 105h457v-114h-457v114z" />
    <glyph glyph-name="less" unicode="&#x3c;" 
d="M572 122l-283 245l283 244h-162l-295 -244l295 -245h162z" />
    <glyph glyph-name="lessequal" unicode="&#x2264;" 
d="M512 180l-223 187l283 244h-162l-295 -244l231 -187h166zM575 105h-457v-114h457v114z" />
    <glyph glyph-name="minus" unicode="&#x2212;" 
d="M121 412h457v-114h-457v114z" />
    <glyph glyph-name="multiply" unicode="&#xd7;" 
d="M475 570l92 -93l-125 -125l125 -126l-93 -92l-125 125l-124 -124l-93 93l124 124l-124 124l92 92l125 -123z" />
    <glyph glyph-name="notequal" unicode="&#x2260;" 
d="M578 401h-142l-54 -108h196v-114h-254l-54 -106h-116l54 106h-87v114h145l56 108h-201v114h259l59 116h114l-59 -116h84v-114z" />
    <glyph glyph-name="percent" unicode="%" horiz-adv-x="884" 
d="M190 304c-107 0 -179 86 -179 201s72 203 179 203s178 -88 178 -203s-71 -201 -178 -201zM149 0l494 700h91l-493 -700h-92zM190 397c52 0 85 50 85 108c0 60 -33 109 -85 109s-85 -49 -85 -109c0 -58 33 -108 85 -108zM695 -8c-107 0 -179 87 -179 202s72 202 179 202
s178 -87 178 -202s-71 -202 -178 -202zM695 86c52 0 85 49 85 108s-33 109 -85 109s-85 -50 -85 -109s33 -108 85 -108z" />
    <glyph glyph-name="perthousand" unicode="&#x2030;" horiz-adv-x="1350" 
d="M217 304c-107 0 -179 86 -179 201s72 203 179 203s178 -88 178 -203s-71 -201 -178 -201zM176 0l494 700h91l-493 -700h-92zM217 397c52 0 85 50 85 108c0 60 -33 109 -85 109s-85 -49 -85 -109c0 -58 33 -108 85 -108zM722 -8c-107 0 -179 87 -179 202s72 202 179 202
s178 -87 178 -202s-71 -202 -178 -202zM1134 -8c-107 0 -179 87 -179 202s72 202 179 202s178 -87 178 -202s-71 -202 -178 -202zM722 86c52 0 85 49 85 108s-33 109 -85 109s-85 -50 -85 -109s33 -108 85 -108zM1134 86c52 0 85 49 85 108s-33 109 -85 109
s-85 -50 -85 -109s33 -108 85 -108z" />
    <glyph glyph-name="plus" unicode="+" 
d="M578 412v-114h-167v-173h-122v173h-168v114h167v171h122v-171h168z" />
    <glyph glyph-name="plusminus" unicode="&#xb1;" 
d="M410 412h168v-114h-167v-117h-122v117h-168v114h167v171h122v-171zM121 -9v114h457v-114h-457z" />
    <glyph glyph-name="ampersand" unicode="&#x26;" horiz-adv-x="709" 
d="M703 414v-109h-125v-67c0 -138 -79 -252 -276 -252c-158 0 -264 87 -264 218c0 84 64 146 141 157v1c-55 7 -130 55 -130 149c0 108 84 203 245 203c132 0 225 -75 253 -198l-117 -33c-23 75 -59 113 -133 113c-81 0 -103 -56 -103 -90c0 -50 37 -92 117 -92h392z
M446 245v60h-144c-82 0 -128 -37 -128 -98c0 -59 54 -101 128 -101c99 0 144 43 144 139z" />
    <glyph glyph-name="at" unicode="@" horiz-adv-x="800" 
d="M476 526h90v-251c0 -42 14 -69 47 -69c51 0 67 71 67 141c0 168 -119 291 -281 291c-161 0 -279 -123 -279 -291c0 -166 118 -290 279 -290c128 0 167 50 175 49l62 -31c-1 -7 -73 -89 -237 -89c-209 0 -361 155 -361 361c0 212 152 367 361 367c210 0 363 -155 363 -367
c0 -96 -44 -209 -161 -209c-53 0 -101 36 -110 84l-1 1c-15 -39 -69 -80 -123 -80c-106 0 -178 79 -178 197c0 121 74 203 185 203c64 0 97 -44 101 -54h1v37zM476 335v22c2 72 -50 92 -89 92c-46 0 -95 -34 -94 -106c1 -73 49 -103 94 -103c38 0 87 28 89 95z" />
    <glyph glyph-name="bar" unicode="|" horiz-adv-x="277" 
d="M194 -74h-111v849h111v-849z" />
    <glyph glyph-name="brokenbar" unicode="&#xa6;" horiz-adv-x="277" 
d="M83 775h111v-280h-111v280zM83 216h111v-290h-111v290z" />
    <glyph glyph-name="copyright" unicode="&#xa9;" horiz-adv-x="803" 
d="M401 714c201 0 364 -153 364 -364s-163 -364 -364 -364s-363 153 -363 364s162 364 363 364zM401 618c-150 0 -260 -110 -260 -268c0 -156 110 -266 260 -266s260 110 260 266c0 158 -110 268 -260 268zM482 306l80 -22c-24 -62 -88 -106 -159 -106
c-94 0 -171 74 -171 172c0 99 77 172 171 172c67 0 128 -39 155 -96l-80 -21c-16 24 -42 38 -75 38c-53 0 -88 -36 -88 -93c0 -56 35 -92 88 -92c36 0 65 18 79 48z" />
    <glyph glyph-name="dagger" unicode="&#x2020;" horiz-adv-x="517" 
d="M503 532v-118h-184v-110c0 -163 -15 -304 -16 -304h-90c-1 0 -17 141 -17 304v110h-182v118h182v168h123v-168h184z" />
    <glyph glyph-name="daggerdbl" unicode="&#x2021;" horiz-adv-x="517" 
d="M319 414v-110v-4h184v-118h-187c-4 -105 -12 -182 -13 -182h-90c-1 0 -10 77 -14 182h-185v118h182v4v110h-182v118h182v168h123v-168h184v-118h-184z" />
    <glyph glyph-name="degree" unicode="&#xb0;" horiz-adv-x="322" 
d="M162 574c-75 0 -138 62 -138 136c0 75 63 137 138 137s136 -62 136 -137c0 -74 -61 -136 -136 -136zM162 657c31 0 56 25 56 54c0 32 -25 56 -56 56c-30 0 -55 -24 -55 -56c0 -29 25 -54 55 -54z" />
    <glyph glyph-name="lozenge" unicode="&#x25ca;" horiz-adv-x="740" 
d="M370 -14l-364 364l364 364l364 -364zM370 556l-206 -206l206 -206l207 206z" />
    <glyph glyph-name="afii61352" unicode="&#x2116;" horiz-adv-x="1111" 
d="M754 540c0 100 76 173 172 173c95 0 172 -73 172 -173c0 -99 -77 -172 -172 -172c-96 0 -172 73 -172 172zM554 700h139v-700h-131l-199 270c-63 86 -140 196 -141 196h-1c-1 0 1 -101 1 -240v-226h-139v700h131l203 -273c48 -63 136 -188 137 -188h1c1 0 -1 114 -1 232
v229zM839 540c0 -52 37 -90 87 -90s87 38 87 90c0 53 -37 91 -87 91s-87 -38 -87 -91zM764 312h324v-85h-324v85z" />
    <glyph glyph-name="paragraph" unicode="&#xb6;" horiz-adv-x="765" 
d="M282 700h399v-700h-139v569h-84v-569h-131v299h-45c-153 0 -244 75 -244 201c0 125 91 200 244 200z" />
    <glyph glyph-name="registered" unicode="&#xae;" horiz-adv-x="803" 
d="M401 714c201 0 364 -153 364 -364s-163 -364 -364 -364s-363 153 -363 364s162 364 363 364zM401 84c150 0 260 110 260 266c0 158 -110 268 -260 268s-260 -110 -260 -268c0 -156 110 -266 260 -266zM283 521h120c83 0 133 -44 133 -112c0 -46 -22 -79 -62 -96l80 -132
h-83l-67 119h-1h-43v-119h-77v340zM360 450v-87h52c32 0 48 19 48 44c0 24 -17 43 -48 43h-52z" />
    <glyph glyph-name="section" unicode="&#xa7;" horiz-adv-x="531" 
d="M490 586l-113 -30c-13 48 -63 72 -116 72s-87 -21 -87 -49c0 -45 67 -51 139 -72c86 -24 184 -62 184 -149c0 -52 -32 -84 -88 -101c52 -25 92 -61 92 -118c0 -90 -92 -154 -231 -154c-127 0 -212 59 -245 147l113 30c15 -45 61 -87 136 -87c65 0 100 26 100 59
c0 51 -81 63 -167 88c-72 21 -163 51 -163 139c0 47 33 83 87 105c-44 21 -79 53 -79 108c0 76 90 141 216 141c109 0 195 -55 222 -129zM161 367c0 -46 74 -54 150 -75c41 7 68 27 68 60c0 50 -66 60 -138 78c-39 -5 -80 -26 -80 -63z" />
    <glyph glyph-name="trademark" unicode="&#x2122;" horiz-adv-x="787" 
d="M14 618v82h298v-82h-107v-243h-84v243h-107zM634 700h78v-325h-82v106c0 51 5 88 4 88h-1c-1 0 -18 -25 -38 -57l-39 -61h-37l-38 61c-23 35 -37 57 -38 57h-1c-1 0 3 -37 3 -88v-106h-82v325h79l63 -99c23 -35 31 -61 32 -61h1c1 0 10 26 33 61z" />
    <glyph glyph-name="commaaccentcomb" unicode="&#x326;" horiz-adv-x="0" 
d="M108 -167l12 4l-12 2c-23 3 -50 23 -50 58c0 36 29 64 65 64c35 0 64 -29 64 -73c0 -58 -44 -124 -95 -167h-49c31 22 65 80 65 112z" />
    <glyph glyph-name="asciicircum" unicode="^" horiz-adv-x="634" 
d="M551 477l-61 -55l-173 177l-172 -177l-62 55l234 235z" />
    <glyph glyph-name="acute" unicode="&#xb4;" horiz-adv-x="316" 
d="M237 929l48 -95l-239 -103l-40 74z" />
    <glyph glyph-name="breve" unicode="&#x2d8;" horiz-adv-x="342" 
d="M-25 888h101c8 -31 37 -59 79 -59c40 0 71 28 78 59h100c-18 -85 -91 -145 -178 -145c-93 0 -162 60 -180 145z" />
    <glyph glyph-name="caron" unicode="&#x2c7;" horiz-adv-x="378" 
d="M-11 883l187 -158l186 158l-67 69l-119 -99l-119 99z" />
    <glyph glyph-name="cedilla" unicode="&#xb8;" horiz-adv-x="260" 
d="M141 0l-20 -54c57 1 107 -38 107 -101c0 -75 -53 -106 -115 -106h-107l29 74h78c26 0 38 14 38 31c0 18 -16 30 -38 31h-93l43 125h78z" />
    <glyph glyph-name="circumflex" unicode="&#x2c6;" horiz-adv-x="378" 
d="M-11 800l187 159l186 -159l-67 -69l-119 99l-119 -99z" />
    <glyph glyph-name="dieresis" unicode="&#xa8;" horiz-adv-x="429" 
d="M72 767c-37 0 -66 28 -66 65c0 36 29 65 66 65c36 0 65 -29 65 -65c0 -37 -29 -65 -65 -65zM330 767c-37 0 -66 28 -66 65c0 36 29 65 66 65s66 -29 66 -65c0 -37 -29 -65 -66 -65z" />
    <glyph glyph-name="dotaccent" unicode="&#x2d9;" horiz-adv-x="168" 
d="M69 766c-36 0 -65 29 -65 66c0 36 29 65 65 65c37 0 66 -29 66 -65c0 -37 -29 -66 -66 -66z" />
    <glyph glyph-name="grave" unicode="`" horiz-adv-x="316" 
d="M244 731l-238 103l48 95l231 -124z" />
    <glyph glyph-name="hungarumlaut" unicode="&#x2dd;" horiz-adv-x="503" 
d="M472 834l-239 -103l-35 65l-152 -65l-40 74l231 124l40 -79l147 79z" />
    <glyph glyph-name="macron" unicode="&#xaf;" horiz-adv-x="344" 
d="M-10 782h339v-108h-339v108z" />
    <glyph glyph-name="ogonek" unicode="&#x2db;" horiz-adv-x="600" 
d="M350 -97l73 -46c-34 -65 -97 -102 -165 -102c-100 0 -174 58 -174 155c0 91 83 148 129 148l90 -58c-53 0 -120 -26 -120 -90c0 -35 26 -68 75 -68c42 0 75 25 92 61z" />
    <glyph glyph-name="ring" unicode="&#x2da;" horiz-adv-x="284" 
d="M129 654c-74 0 -137 62 -137 136c0 75 63 137 137 137c76 0 137 -62 137 -137c0 -74 -61 -136 -137 -136zM129 737c32 0 57 25 57 54c0 32 -25 56 -57 56c-29 0 -54 -24 -54 -56c0 -29 25 -54 54 -54z" />
    <glyph glyph-name="tilde" unicode="&#x2dc;" horiz-adv-x="483" 
d="M342 884h109c0 -80 -59 -138 -142 -138c-69 0 -103 60 -149 60c-27 0 -46 -18 -46 -44h-108c0 80 59 139 142 139c72 0 105 -61 149 -61c26 0 45 19 45 44z" />
    <glyph glyph-name="apple" horiz-adv-x="784" 
d="M657 82h44v45c-1 196 -13 210 -22 222l-25 29l-11 13l11 12l22 26c12 12 24 24 25 227v44h-44c-202 0 -214 -13 -227 -25l-20 -17l-17 -16l-18 16l-20 19c-12 10 -25 22 -229 23h-43v-44c0 -201 13 -215 23 -227l24 -27l10 -11l-10 -12l-24 -27c-10 -11 -23 -24 -23 -227
v-43h43c200 0 215 13 227 24l27 23l11 10l13 -10l27 -23c12 -11 24 -23 226 -24zM391 256l-89 -79c-20 -4 -76 -6 -132 -7c2 55 4 111 7 132l79 89l-79 89c-3 20 -5 76 -7 133c57 -1 113 -4 133 -7l88 -81l91 81c20 3 76 6 132 7c-2 -56 -4 -112 -7 -133l-81 -89l81 -91
c2 -20 5 -75 7 -130c-57 1 -112 3 -133 7zM117 39l3 12c-3 2 -8 3 -15 3c-13 0 -21 -8 -21 -17c0 -8 6 -13 15 -16c6 -2 9 -4 9 -6c0 -4 -3 -5 -7 -5c-6 0 -11 3 -14 4l-4 -12c4 -2 9 -3 16 -3c17 0 24 8 24 17c0 8 -6 13 -14 16c-6 2 -11 5 -11 7s3 4 7 4c6 0 10 -3 12 -4z
M562 40l4 12c-2 1 -7 2 -14 2c-16 0 -29 -10 -29 -29c0 -14 8 -26 28 -26c7 0 11 1 14 2l-3 12c-2 -2 -5 -3 -9 -3c-9 0 -15 6 -15 16c0 11 7 17 15 17c5 0 7 -1 9 -3zM621 26c0 16 -10 28 -27 28s-27 -12 -27 -28c0 -15 9 -27 27 -27c16 0 27 10 27 27zM141 20v-20h14v20
l17 33h-16l-8 -23l-7 23h-17zM177 53v-53h13v35l19 -35h15v53h-13v-32l-16 32h-18zM229 42h14v-42h13v42h14v11h-41v-11zM290 33v20h-15v-53h15v21h18v-21h14v53h-14v-20h-18zM327 53l17 -53h16l17 53h-15l-10 -39l-9 39h-16zM397 0v53h-15v-53h15zM420 21h19v11h-19v10h21
v11h-36v-53h36v11h-21v10zM445 53l13 -53h15l7 35l6 -35h16l13 53h-14l-7 -36l-6 36h-15l-6 -36l-7 36h-15zM672 40v-40h14l-2 53h-19l-9 -34l-8 34h-19l-4 -53h15v40l11 -39h10zM582 26c0 11 5 17 12 17s11 -7 11 -17s-4 -16 -11 -16c-8 0 -12 6 -12 16zM516 -1
c-4 0 -6 3 -6 6c0 4 3 6 6 6c4 0 6 -3 6 -6c0 -4 -3 -6 -6 -6z" />
    </font>
</defs>
</svg>
